<svg width="1617" height="800" viewBox="0 0 1617 800" fill="none" xmlns="http://www.w3.org/2000/svg">
<g clip-path="url(#clip0_4_2)">
<mask id="mask0_4_2" style="mask-type:luminance" maskUnits="userSpaceOnUse" x="0" y="0" width="1617" height="800">
<path d="M1617 0H0V800H1617V0Z" fill="white"/>
</mask>
<g mask="url(#mask0_4_2)">
<path d="M1617 0H0V800H1617V0Z" fill="white"/>
<path d="M984.568 572.455H942.144V398.949H870.716" stroke="#B1B8C9" stroke-width="2"/>
<path d="M280 311H74C69.5817 311 66 314.582 66 319V481C66 485.418 69.5817 489 74 489H280C284.418 489 288 485.418 288 481V319C288 314.582 284.418 311 280 311Z" fill="#3B4253"/>
<path d="M147.72 408.424V423.784C147.72 423.952 147.672 424 147.528 424H145.008C144.864 424 144.816 423.928 144.816 423.784V408.424C144.816 408.256 144.888 408.232 145.008 408.232H147.528C147.672 408.232 147.72 408.28 147.72 408.424ZM150.857 423.808V414.928C150.857 414.112 150.809 412.816 150.761 412.336C150.761 412.216 150.785 412.168 150.929 412.168H153.113C153.281 412.168 153.353 412.216 153.401 412.336C153.473 412.552 153.521 412.864 153.569 413.248C154.601 412.384 155.753 411.928 157.049 411.928C158.849 411.928 161.057 412.84 161.057 416.68V423.784C161.057 423.952 160.985 424 160.865 424H158.369C158.225 424 158.153 423.928 158.153 423.784V416.944C158.153 415.36 157.481 414.448 156.089 414.448C155.129 414.448 154.337 414.808 153.761 415.432V423.808C153.761 423.928 153.689 424 153.569 424H151.049C150.905 424 150.857 423.928 150.857 423.808ZM169.149 423.928L166.533 423.808C165.837 424.288 165.381 425.056 165.381 425.416C165.381 426.256 166.533 427.192 168.525 427.192C170.805 427.192 171.813 426.256 171.813 425.344C171.813 424.288 170.613 424 169.149 423.928ZM167.997 414.016C166.797 414.016 166.053 414.76 166.053 415.984C166.053 417.088 166.725 417.904 167.997 417.904C169.197 417.904 169.917 417.208 169.917 416.032C169.917 414.904 169.341 414.016 167.997 414.016ZM167.325 421.384L169.773 421.48C173.061 421.648 174.477 422.944 174.477 424.912C174.477 427.36 172.077 429.328 168.333 429.328C164.469 429.328 162.717 427.384 162.717 425.632C162.717 424.864 163.365 423.88 164.949 422.512C164.589 421.984 164.421 421.36 164.445 420.712C164.445 420.16 164.589 419.632 164.877 419.152C163.893 418.528 163.221 417.496 163.221 416.032C163.221 413.728 164.973 411.928 167.997 411.928C168.837 411.928 169.605 412 170.109 412.096C170.325 412.144 170.517 412.168 170.661 412.168H173.997C174.117 412.168 174.141 412.216 174.141 412.312V414.28C174.141 414.376 174.117 414.424 173.997 414.424C173.541 414.424 172.677 414.376 172.149 414.304C172.413 414.688 172.677 415.264 172.677 416.128C172.677 418.696 170.637 419.992 168.045 419.992C167.733 419.992 167.397 419.968 167.085 419.92C167.013 420.16 166.965 420.4 167.013 420.64C167.037 420.904 167.133 421.144 167.325 421.384ZM182.874 418.744H178.002C178.074 420.424 179.178 421.768 181.626 421.768C182.706 421.768 183.69 421.576 184.602 421.192C184.674 421.144 184.746 421.168 184.746 421.288V423.28C184.746 423.424 184.698 423.496 184.602 423.544C183.69 423.976 182.634 424.24 181.002 424.24C176.634 424.24 175.074 421.168 175.074 418.216C175.074 414.88 177.09 411.928 180.714 411.928C184.266 411.928 185.634 414.712 185.634 416.992C185.634 417.664 185.61 418.216 185.538 418.48C185.514 418.576 185.466 418.624 185.346 418.648C185.01 418.72 184.05 418.744 182.874 418.744ZM178.002 416.68H181.578C182.49 416.68 182.802 416.68 182.898 416.656C182.898 416.584 182.898 416.488 182.898 416.464C182.898 415.768 182.418 414.232 180.594 414.232C178.938 414.232 178.194 415.504 178.002 416.68ZM194.769 414.952C194.025 414.544 192.825 414.256 191.769 414.256C190.497 414.256 190.065 414.784 190.065 415.288C190.065 415.816 190.425 416.176 191.961 416.776C194.697 417.784 195.633 418.864 195.633 420.568C195.633 422.824 193.857 424.24 190.905 424.24C189.489 424.24 188.241 423.976 187.521 423.568C187.401 423.496 187.353 423.448 187.353 423.304V421.024C187.353 420.904 187.449 420.856 187.545 420.904C188.577 421.576 189.897 421.864 190.977 421.864C192.225 421.864 192.825 421.432 192.825 420.808C192.825 420.208 192.369 419.824 190.881 419.224C188.265 418.264 187.329 417.184 187.329 415.456C187.329 413.632 188.817 411.928 191.817 411.928C193.209 411.928 194.265 412.12 194.841 412.408C194.961 412.48 194.985 412.576 194.985 412.696V414.808C194.985 414.928 194.913 415 194.769 414.952ZM203.582 421.888V423.616C203.582 423.76 203.558 423.856 203.438 423.904C202.79 424.144 202.19 424.24 201.398 424.24C199.43 424.24 198.254 423.28 198.254 420.904V414.592H196.742C196.622 414.568 196.574 414.52 196.574 414.376V412.36C196.574 412.216 196.622 412.168 196.766 412.168H198.278C198.302 411.328 198.398 409.816 198.518 409.216C198.542 409.096 198.59 409.024 198.71 409L201.134 408.664C201.254 408.64 201.302 408.664 201.302 408.784C201.23 409.576 201.182 410.992 201.182 412.168H203.51C203.63 412.168 203.678 412.216 203.678 412.336V414.424C203.678 414.544 203.63 414.592 203.51 414.592H201.158V420.28C201.158 421.336 201.494 421.84 202.526 421.84C202.838 421.84 203.102 421.816 203.438 421.744C203.51 421.72 203.582 421.744 203.582 421.888Z" fill="white"/>
<path d="M154.752 453.784V438.448C154.752 438.328 154.776 438.28 154.92 438.256C155.616 438.232 157.248 438.184 159.456 438.184C165.096 438.184 167.928 441.376 167.928 445.84C167.928 451.696 163.464 454.048 159.408 454.048C157.896 454.048 155.688 454.048 154.92 454C154.824 454 154.752 453.928 154.752 453.784ZM157.656 440.752V451.504C158.136 451.528 158.664 451.528 159.288 451.528C162.672 451.528 164.952 449.56 164.952 445.912C164.952 442.432 162.672 440.704 159.432 440.704C158.76 440.704 158.232 440.728 157.656 440.752ZM176.404 451.672V448.72C176.044 448.672 175.636 448.648 175.084 448.648C173.188 448.648 172.348 449.272 172.348 450.304C172.348 451.192 172.972 451.96 174.7 451.96C175.324 451.96 175.876 451.888 176.404 451.672ZM179.212 446.68V451.552C179.212 452.08 179.212 452.56 179.26 453.064C179.26 453.112 179.26 453.136 179.212 453.16C177.244 454 175.852 454.24 174.22 454.24C171.604 454.24 169.516 453.016 169.516 450.304C169.516 447.76 171.796 446.488 174.916 446.488C175.636 446.488 176.188 446.512 176.404 446.536V446.248C176.404 445.696 176.092 444.448 173.98 444.448C172.78 444.448 171.724 444.688 170.836 445.12C170.764 445.144 170.644 445.12 170.644 444.976V442.888C170.644 442.768 170.668 442.72 170.788 442.648C171.82 442.168 173.14 441.928 174.436 441.928C177.772 441.928 179.212 444.016 179.212 446.68ZM187.713 451.888V453.616C187.713 453.76 187.689 453.856 187.569 453.904C186.921 454.144 186.321 454.24 185.529 454.24C183.561 454.24 182.385 453.28 182.385 450.904V444.592H180.873C180.753 444.568 180.705 444.52 180.705 444.376V442.36C180.705 442.216 180.753 442.168 180.897 442.168H182.409C182.433 441.328 182.529 439.816 182.649 439.216C182.673 439.096 182.721 439.024 182.841 439L185.265 438.664C185.385 438.64 185.433 438.664 185.433 438.784C185.361 439.576 185.313 440.992 185.313 442.168H187.641C187.761 442.168 187.809 442.216 187.809 442.336V444.424C187.809 444.544 187.761 444.592 187.641 444.592H185.289V450.28C185.289 451.336 185.625 451.84 186.657 451.84C186.969 451.84 187.233 451.816 187.569 451.744C187.641 451.72 187.713 451.744 187.713 451.888ZM195.927 451.672V448.72C195.567 448.672 195.159 448.648 194.607 448.648C192.711 448.648 191.871 449.272 191.871 450.304C191.871 451.192 192.495 451.96 194.223 451.96C194.847 451.96 195.399 451.888 195.927 451.672ZM198.735 446.68V451.552C198.735 452.08 198.735 452.56 198.783 453.064C198.783 453.112 198.783 453.136 198.735 453.16C196.767 454 195.375 454.24 193.743 454.24C191.127 454.24 189.039 453.016 189.039 450.304C189.039 447.76 191.319 446.488 194.439 446.488C195.159 446.488 195.711 446.512 195.927 446.536V446.248C195.927 445.696 195.615 444.448 193.503 444.448C192.303 444.448 191.247 444.688 190.359 445.12C190.287 445.144 190.167 445.12 190.167 444.976V442.888C190.167 442.768 190.191 442.72 190.311 442.648C191.343 442.168 192.663 441.928 193.959 441.928C197.295 441.928 198.735 444.016 198.735 446.68Z" fill="white"/>
<path d="M584 311H378C373.582 311 370 314.582 370 319V481C370 485.418 373.582 489 378 489H584C588.418 489 592 485.418 592 481V319C592 314.582 588.418 311 584 311Z" fill="#3B4253"/>
<path d="M438.352 427H435.832C435.688 427 435.64 426.952 435.64 426.808V420.112H428.944V426.784C428.944 426.928 428.896 427 428.752 427H426.28C426.112 427 426.064 426.928 426.064 426.784V411.448C426.064 411.28 426.112 411.232 426.256 411.232H428.752C428.896 411.232 428.944 411.28 428.944 411.424V417.496H435.64V411.4C435.64 411.304 435.688 411.232 435.808 411.232H438.376C438.496 411.232 438.544 411.28 438.544 411.4V426.808C438.544 426.952 438.496 427 438.352 427ZM447.598 424.672V421.72C447.238 421.672 446.83 421.648 446.278 421.648C444.382 421.648 443.542 422.272 443.542 423.304C443.542 424.192 444.166 424.96 445.894 424.96C446.518 424.96 447.07 424.888 447.598 424.672ZM450.406 419.68V424.552C450.406 425.08 450.406 425.56 450.454 426.064C450.454 426.112 450.454 426.136 450.406 426.16C448.438 427 447.046 427.24 445.414 427.24C442.798 427.24 440.71 426.016 440.71 423.304C440.71 420.76 442.99 419.488 446.11 419.488C446.83 419.488 447.382 419.512 447.598 419.536V419.248C447.598 418.696 447.286 417.448 445.174 417.448C443.974 417.448 442.918 417.688 442.03 418.12C441.958 418.144 441.838 418.12 441.838 417.976V415.888C441.838 415.768 441.862 415.72 441.982 415.648C443.014 415.168 444.334 414.928 445.63 414.928C448.966 414.928 450.406 417.016 450.406 419.68ZM453.456 415.168H455.712C455.856 415.168 455.928 415.216 455.976 415.36C456.096 415.672 456.192 416.272 456.216 416.8C457.032 415.792 458.4 414.928 460.056 414.928C460.2 414.928 460.248 414.952 460.248 415.096V417.64C460.248 417.76 460.2 417.808 460.032 417.808C458.328 417.76 456.912 418.36 456.36 419.08V426.808C456.36 426.952 456.288 427 456.144 427H453.648C453.48 427 453.432 426.928 453.432 426.808V418.528C453.432 417.496 453.408 416.104 453.312 415.312C453.312 415.192 453.336 415.168 453.456 415.168ZM464.652 427H462.132C461.988 427 461.94 426.928 461.94 426.784V417.712C461.94 416.776 461.892 415.792 461.844 415.336C461.82 415.216 461.892 415.168 462.036 415.168H464.244C464.364 415.168 464.412 415.192 464.484 415.312C464.556 415.504 464.604 415.888 464.628 416.272C465.756 415.312 466.86 414.928 468.132 414.928C469.548 414.928 470.58 415.456 471.228 416.512C472.26 415.624 473.532 414.928 475.164 414.928C477.156 414.928 479.22 415.984 479.22 419.608V426.808C479.22 426.952 479.124 427 479.004 427H476.532C476.364 427 476.316 426.928 476.316 426.784V419.872C476.316 418.504 475.764 417.424 474.3 417.424C473.364 417.424 472.548 417.832 471.948 418.408C471.996 418.672 472.02 419.32 472.02 419.824V426.808C472.02 426.928 471.996 427 471.852 427H469.356C469.212 427 469.14 426.952 469.14 426.784V419.8C469.14 418.216 468.42 417.448 467.124 417.448C466.26 417.448 465.564 417.736 464.844 418.336V426.808C464.844 426.952 464.796 427 464.652 427ZM487.325 414.928C491.021 414.928 493.037 417.736 493.037 421.024C493.037 424.744 490.661 427.24 487.277 427.24C483.269 427.24 481.493 424.144 481.493 421.096C481.493 417.688 483.725 414.928 487.325 414.928ZM487.181 417.352C485.573 417.352 484.421 418.768 484.421 421.048C484.421 423.256 485.501 424.792 487.325 424.792C488.813 424.792 490.085 423.568 490.085 421.096C490.085 419.104 489.221 417.352 487.181 417.352ZM495.292 426.808V417.928C495.292 417.112 495.244 415.816 495.196 415.336C495.196 415.216 495.22 415.168 495.364 415.168H497.548C497.716 415.168 497.788 415.216 497.836 415.336C497.908 415.552 497.956 415.864 498.004 416.248C499.036 415.384 500.188 414.928 501.484 414.928C503.284 414.928 505.492 415.84 505.492 419.68V426.784C505.492 426.952 505.42 427 505.3 427H502.804C502.66 427 502.588 426.928 502.588 426.784V419.944C502.588 418.36 501.916 417.448 500.524 417.448C499.564 417.448 498.772 417.808 498.196 418.432V426.808C498.196 426.928 498.124 427 498.004 427H495.484C495.34 427 495.292 426.928 495.292 426.808ZM508.51 426.784V415.336C508.51 415.216 508.582 415.168 508.702 415.168H511.246C511.39 415.168 511.438 415.192 511.438 415.336V426.808C511.438 426.952 511.39 427 511.222 427H508.75C508.582 427 508.51 426.928 508.51 426.784ZM509.974 413.56C508.99 413.56 508.342 412.888 508.342 411.904C508.342 410.92 509.038 410.248 509.998 410.248C511.03 410.248 511.63 410.944 511.63 411.904C511.63 412.888 510.982 413.56 509.974 413.56ZM522.712 427H513.688C513.568 427 513.544 426.952 513.544 426.832V425.392C513.544 425.296 513.568 425.224 513.616 425.152C515.152 422.968 518.752 418.552 519.472 417.568C519.016 417.592 518.224 417.592 517.192 417.592H513.832C513.664 417.592 513.616 417.52 513.664 417.376L514 415.336C514.024 415.216 514.072 415.168 514.216 415.168H522.712C522.832 415.168 522.856 415.192 522.88 415.312V416.8C522.88 416.944 522.856 417.016 522.76 417.136C520.816 419.968 517.72 423.784 517.096 424.576C517.744 424.552 518.656 424.576 519.856 424.576H523.144C523.264 424.576 523.336 424.6 523.288 424.768L522.904 426.832C522.88 426.952 522.808 427 522.712 427ZM532.184 421.744H527.312C527.384 423.424 528.488 424.768 530.936 424.768C532.016 424.768 533 424.576 533.912 424.192C533.984 424.144 534.056 424.168 534.056 424.288V426.28C534.056 426.424 534.008 426.496 533.912 426.544C533 426.976 531.944 427.24 530.312 427.24C525.944 427.24 524.384 424.168 524.384 421.216C524.384 417.88 526.4 414.928 530.024 414.928C533.576 414.928 534.944 417.712 534.944 419.992C534.944 420.664 534.92 421.216 534.848 421.48C534.824 421.576 534.776 421.624 534.656 421.648C534.32 421.72 533.36 421.744 532.184 421.744ZM527.312 419.68H530.888C531.8 419.68 532.112 419.68 532.208 419.656C532.208 419.584 532.208 419.488 532.208 419.464C532.208 418.768 531.728 417.232 529.904 417.232C528.248 417.232 527.504 418.504 527.312 419.68Z" fill="white"/>
<path d="M458.752 456.784V441.448C458.752 441.328 458.776 441.28 458.92 441.256C459.616 441.232 461.248 441.184 463.456 441.184C469.096 441.184 471.928 444.376 471.928 448.84C471.928 454.696 467.464 457.048 463.408 457.048C461.896 457.048 459.688 457.048 458.92 457C458.824 457 458.752 456.928 458.752 456.784ZM461.656 443.752V454.504C462.136 454.528 462.664 454.528 463.288 454.528C466.672 454.528 468.952 452.56 468.952 448.912C468.952 445.432 466.672 443.704 463.432 443.704C462.76 443.704 462.232 443.728 461.656 443.752ZM480.404 454.672V451.72C480.044 451.672 479.636 451.648 479.084 451.648C477.188 451.648 476.348 452.272 476.348 453.304C476.348 454.192 476.972 454.96 478.7 454.96C479.324 454.96 479.876 454.888 480.404 454.672ZM483.212 449.68V454.552C483.212 455.08 483.212 455.56 483.26 456.064C483.26 456.112 483.26 456.136 483.212 456.16C481.244 457 479.852 457.24 478.22 457.24C475.604 457.24 473.516 456.016 473.516 453.304C473.516 450.76 475.796 449.488 478.916 449.488C479.636 449.488 480.188 449.512 480.404 449.536V449.248C480.404 448.696 480.092 447.448 477.98 447.448C476.78 447.448 475.724 447.688 474.836 448.12C474.764 448.144 474.644 448.12 474.644 447.976V445.888C474.644 445.768 474.668 445.72 474.788 445.648C475.82 445.168 477.14 444.928 478.436 444.928C481.772 444.928 483.212 447.016 483.212 449.68ZM491.713 454.888V456.616C491.713 456.76 491.689 456.856 491.569 456.904C490.921 457.144 490.321 457.24 489.529 457.24C487.561 457.24 486.385 456.28 486.385 453.904V447.592H484.873C484.753 447.568 484.705 447.52 484.705 447.376V445.36C484.705 445.216 484.753 445.168 484.897 445.168H486.409C486.433 444.328 486.529 442.816 486.649 442.216C486.673 442.096 486.721 442.024 486.841 442L489.265 441.664C489.385 441.64 489.433 441.664 489.433 441.784C489.361 442.576 489.313 443.992 489.313 445.168H491.641C491.761 445.168 491.809 445.216 491.809 445.336V447.424C491.809 447.544 491.761 447.592 491.641 447.592H489.289V453.28C489.289 454.336 489.625 454.84 490.657 454.84C490.969 454.84 491.233 454.816 491.569 454.744C491.641 454.72 491.713 454.744 491.713 454.888ZM499.927 454.672V451.72C499.567 451.672 499.159 451.648 498.607 451.648C496.711 451.648 495.871 452.272 495.871 453.304C495.871 454.192 496.495 454.96 498.223 454.96C498.847 454.96 499.399 454.888 499.927 454.672ZM502.735 449.68V454.552C502.735 455.08 502.735 455.56 502.783 456.064C502.783 456.112 502.783 456.136 502.735 456.16C500.767 457 499.375 457.24 497.743 457.24C495.127 457.24 493.039 456.016 493.039 453.304C493.039 450.76 495.319 449.488 498.439 449.488C499.159 449.488 499.711 449.512 499.927 449.536V449.248C499.927 448.696 499.615 447.448 497.503 447.448C496.303 447.448 495.247 447.688 494.359 448.12C494.287 448.144 494.167 448.12 494.167 447.976V445.888C494.167 445.768 494.191 445.72 494.311 445.648C495.343 445.168 496.663 444.928 497.959 444.928C501.295 444.928 502.735 447.016 502.735 449.68Z" fill="white"/>
<path d="M1206 133H1000C995.582 133 992 136.582 992 141V303C992 307.418 995.582 311 1000 311H1206C1210.42 311 1214 307.418 1214 303V141C1214 136.582 1210.42 133 1206 133Z" fill="#3B4253"/>
<path d="M1206 133H1000C995.582 133 992 136.582 992 141V303C992 307.418 995.582 311 1000 311H1206C1210.42 311 1214 307.418 1214 303V141C1214 136.582 1210.42 133 1206 133Z" fill="#3B4253"/>
<path d="M1040.48 248.784V235.848H1035.61C1035.49 235.848 1035.44 235.776 1035.47 235.656L1035.78 233.424C1035.8 233.28 1035.85 233.232 1036 233.232H1047.92C1048.07 233.232 1048.14 233.28 1048.16 233.448L1048.38 235.632C1048.4 235.776 1048.33 235.848 1048.21 235.848H1043.36V248.784C1043.36 248.928 1043.29 249 1043.17 249H1040.7C1040.53 249.024 1040.48 248.952 1040.48 248.784ZM1048.39 237.168H1050.65C1050.79 237.168 1050.87 237.216 1050.91 237.36C1051.03 237.672 1051.13 238.272 1051.15 238.8C1051.97 237.792 1053.34 236.928 1054.99 236.928C1055.14 236.928 1055.19 236.952 1055.19 237.096V239.64C1055.19 239.76 1055.14 239.808 1054.97 239.808C1053.27 239.76 1051.85 240.36 1051.3 241.08V248.808C1051.3 248.952 1051.23 249 1051.08 249H1048.59C1048.42 249 1048.37 248.928 1048.37 248.808V240.528C1048.37 239.496 1048.35 238.104 1048.25 237.312C1048.25 237.192 1048.27 237.168 1048.39 237.168ZM1062.69 246.672V243.72C1062.33 243.672 1061.92 243.648 1061.37 243.648C1059.48 243.648 1058.64 244.272 1058.64 245.304C1058.64 246.192 1059.26 246.96 1060.99 246.96C1061.61 246.96 1062.16 246.888 1062.69 246.672ZM1065.5 241.68V246.552C1065.5 247.08 1065.5 247.56 1065.55 248.064C1065.55 248.112 1065.55 248.136 1065.5 248.16C1063.53 249 1062.14 249.24 1060.51 249.24C1057.89 249.24 1055.8 248.016 1055.8 245.304C1055.8 242.76 1058.08 241.488 1061.2 241.488C1061.92 241.488 1062.48 241.512 1062.69 241.536V241.248C1062.69 240.696 1062.38 239.448 1060.27 239.448C1059.07 239.448 1058.01 239.688 1057.12 240.12C1057.05 240.144 1056.93 240.12 1056.93 239.976V237.888C1056.93 237.768 1056.96 237.72 1057.08 237.648C1058.11 237.168 1059.43 236.928 1060.72 236.928C1064.06 236.928 1065.5 239.016 1065.5 241.68ZM1068.53 248.784V237.336C1068.53 237.216 1068.6 237.168 1068.72 237.168H1071.26C1071.41 237.168 1071.45 237.192 1071.45 237.336V248.808C1071.45 248.952 1071.41 249 1071.24 249H1068.77C1068.6 249 1068.53 248.928 1068.53 248.784ZM1069.99 235.56C1069.01 235.56 1068.36 234.888 1068.36 233.904C1068.36 232.92 1069.05 232.248 1070.01 232.248C1071.05 232.248 1071.65 232.944 1071.65 233.904C1071.65 234.888 1071 235.56 1069.99 235.56ZM1074.41 248.808V239.928C1074.41 239.112 1074.36 237.816 1074.31 237.336C1074.31 237.216 1074.34 237.168 1074.48 237.168H1076.67C1076.83 237.168 1076.91 237.216 1076.95 237.336C1077.03 237.552 1077.07 237.864 1077.12 238.248C1078.15 237.384 1079.31 236.928 1080.6 236.928C1082.4 236.928 1084.61 237.84 1084.61 241.68V248.784C1084.61 248.952 1084.54 249 1084.42 249H1081.92C1081.78 249 1081.71 248.928 1081.71 248.784V241.944C1081.71 240.36 1081.03 239.448 1079.64 239.448C1078.68 239.448 1077.89 239.808 1077.31 240.432V248.808C1077.31 248.928 1077.24 249 1077.12 249H1074.6C1074.46 249 1074.41 248.928 1074.41 248.808ZM1106.36 241.728H1101.32C1102.02 242.4 1103.24 243.888 1103.91 244.872C1104.85 246.12 1105.57 246.576 1106.67 246.576C1106.89 246.576 1107.15 246.552 1107.3 246.528C1107.42 246.528 1107.46 246.552 1107.46 246.696V248.76C1107.46 248.952 1107.44 249 1107.27 249.072C1107.01 249.168 1106.6 249.24 1106.02 249.24C1104.37 249.24 1103.19 248.76 1101.58 246.408C1099.88 243.888 1098.15 242.088 1097.6 241.848C1096.81 241.896 1095.54 242.64 1095.54 244.128C1095.54 245.448 1096.5 246.552 1098.46 246.552C1099.26 246.552 1099.86 246.432 1100.36 246.216C1100.46 246.192 1100.48 246.24 1100.48 246.36V248.64C1100.48 248.808 1100.43 248.832 1100.31 248.88C1099.81 249.072 1099.16 249.24 1097.96 249.24C1094.86 249.24 1092.61 247.416 1092.61 244.416C1092.61 241.944 1094.34 240.528 1095.97 239.928C1095.34 239.208 1094.67 238.272 1094.67 236.904C1094.67 234.48 1096.62 232.968 1099.47 232.968C1100.6 232.968 1101.56 233.112 1102.18 233.448C1102.28 233.496 1102.33 233.592 1102.33 233.736V235.92C1102.33 236.064 1102.23 236.112 1102.14 236.04C1101.56 235.728 1100.72 235.488 1099.59 235.488C1098.18 235.488 1097.53 236.04 1097.53 236.976C1097.53 237.672 1098.15 238.392 1099.16 239.208H1106.77C1106.94 239.208 1106.96 239.256 1106.94 239.376L1106.58 241.536C1106.55 241.704 1106.5 241.728 1106.36 241.728ZM1119 249.24C1117.25 249.24 1115.79 248.904 1114.8 248.376C1114.68 248.304 1114.64 248.208 1114.64 248.016V245.52C1114.64 245.424 1114.73 245.376 1114.83 245.424C1116.12 246.264 1117.71 246.672 1119.1 246.672C1121.07 246.672 1121.91 245.904 1121.91 244.872C1121.91 243.984 1121.33 243.312 1119.51 242.544L1118.36 242.064C1115.4 240.816 1114.64 239.328 1114.64 237.528C1114.64 234.96 1116.58 232.992 1120.2 232.992C1121.72 232.992 1123.08 233.208 1123.88 233.616C1124 233.688 1124.02 233.76 1124.02 233.928V236.256C1124.02 236.352 1123.95 236.448 1123.8 236.352C1122.89 235.824 1121.57 235.56 1120.18 235.56C1118.12 235.56 1117.47 236.424 1117.47 237.264C1117.47 238.128 1118.02 238.728 1119.92 239.52L1120.83 239.904C1123.95 241.2 1124.84 242.712 1124.84 244.608C1124.84 247.416 1122.63 249.24 1119 249.24ZM1135.56 246.528V248.664C1135.56 248.784 1135.54 248.832 1135.44 248.856C1134.67 249.168 1133.71 249.24 1132.78 249.24C1128.89 249.24 1126.59 246.576 1126.59 243.12C1126.59 239.568 1129.23 236.928 1133.19 236.928C1134.39 236.928 1135.03 237.048 1135.44 237.192C1135.54 237.24 1135.56 237.312 1135.56 237.456L1135.54 239.592C1135.54 239.76 1135.44 239.76 1135.35 239.736C1134.84 239.544 1134.22 239.424 1133.28 239.424C1131.1 239.424 1129.56 240.72 1129.56 243.024C1129.56 245.64 1131.46 246.648 1133.31 246.648C1134.17 246.648 1134.91 246.576 1135.39 246.408C1135.51 246.36 1135.56 246.432 1135.56 246.528ZM1142.75 236.928C1146.45 236.928 1148.47 239.736 1148.47 243.024C1148.47 246.744 1146.09 249.24 1142.71 249.24C1138.7 249.24 1136.92 246.144 1136.92 243.096C1136.92 239.688 1139.15 236.928 1142.75 236.928ZM1142.61 239.352C1141 239.352 1139.85 240.768 1139.85 243.048C1139.85 245.256 1140.93 246.792 1142.75 246.792C1144.24 246.792 1145.51 245.568 1145.51 243.096C1145.51 241.104 1144.65 239.352 1142.61 239.352ZM1150.75 237.168H1153C1153.15 237.168 1153.22 237.216 1153.27 237.36C1153.39 237.672 1153.48 238.272 1153.51 238.8C1154.32 237.792 1155.69 236.928 1157.35 236.928C1157.49 236.928 1157.54 236.952 1157.54 237.096V239.64C1157.54 239.76 1157.49 239.808 1157.32 239.808C1155.62 239.76 1154.2 240.36 1153.65 241.08V248.808C1153.65 248.952 1153.58 249 1153.43 249H1150.94C1150.77 249 1150.72 248.928 1150.72 248.808V240.528C1150.72 239.496 1150.7 238.104 1150.6 237.312C1150.6 237.192 1150.63 237.168 1150.75 237.168ZM1166.36 243.744H1161.48C1161.56 245.424 1162.66 246.768 1165.11 246.768C1166.19 246.768 1167.17 246.576 1168.08 246.192C1168.16 246.144 1168.23 246.168 1168.23 246.288V248.28C1168.23 248.424 1168.18 248.496 1168.08 248.544C1167.17 248.976 1166.12 249.24 1164.48 249.24C1160.12 249.24 1158.56 246.168 1158.56 243.216C1158.56 239.88 1160.57 236.928 1164.2 236.928C1167.75 236.928 1169.12 239.712 1169.12 241.992C1169.12 242.664 1169.09 243.216 1169.02 243.48C1169 243.576 1168.95 243.624 1168.83 243.648C1168.49 243.72 1167.53 243.744 1166.36 243.744ZM1161.48 241.68H1165.06C1165.97 241.68 1166.28 241.68 1166.38 241.656C1166.38 241.584 1166.38 241.488 1166.38 241.464C1166.38 240.768 1165.9 239.232 1164.08 239.232C1162.42 239.232 1161.68 240.504 1161.48 241.68Z" fill="white"/>
<path d="M1068.76 263.376C1068.78 263.232 1068.83 263.232 1068.95 263.232H1072.79C1072.93 263.232 1072.98 263.28 1073.03 263.4C1073.75 265.824 1075.84 272.952 1076.32 275.184H1076.34C1076.84 273.144 1079.22 265.872 1079.96 263.4C1080.01 263.304 1080.04 263.232 1080.18 263.232H1083.92C1084.04 263.232 1084.09 263.256 1084.12 263.376L1084.76 278.808C1084.79 278.952 1084.72 279 1084.6 279H1081.93C1081.81 279 1081.74 278.976 1081.74 278.832C1081.62 273.72 1081.57 266.808 1081.6 265.296H1081.57C1081.02 267.6 1078.55 275.616 1077.59 278.808C1077.56 278.976 1077.47 279 1077.37 279H1074.97C1074.8 279 1074.76 278.976 1074.73 278.832C1073.7 275.184 1071.78 268.2 1071.11 265.272H1071.06C1071.04 267.696 1070.84 273.792 1070.6 278.832C1070.6 278.976 1070.56 279 1070.41 279H1068.01C1067.87 279 1067.82 278.976 1067.84 278.808L1068.76 263.376ZM1092.69 266.928C1096.39 266.928 1098.4 269.736 1098.4 273.024C1098.4 276.744 1096.03 279.24 1092.64 279.24C1088.63 279.24 1086.86 276.144 1086.86 273.096C1086.86 269.688 1089.09 266.928 1092.69 266.928ZM1092.55 269.352C1090.94 269.352 1089.79 270.768 1089.79 273.048C1089.79 275.256 1090.87 276.792 1092.69 276.792C1094.18 276.792 1095.45 275.568 1095.45 273.096C1095.45 271.104 1094.59 269.352 1092.55 269.352ZM1106.2 279.24C1102.72 279.24 1100.05 277.224 1100.05 273.192C1100.05 269.712 1102.65 266.928 1106.87 266.928C1107.21 266.928 1107.49 266.952 1107.9 267V262.08C1107.9 261.96 1107.95 261.912 1108.05 261.912H1110.66C1110.78 261.912 1110.78 261.96 1110.78 262.056V276.552C1110.78 277.032 1110.83 277.656 1110.88 278.088C1110.88 278.208 1110.85 278.256 1110.73 278.304C1109.17 278.976 1107.64 279.24 1106.2 279.24ZM1107.9 276.552V269.52C1107.59 269.4 1107.21 269.352 1106.77 269.352C1104.64 269.352 1103.03 270.72 1103.03 273.048C1103.03 275.664 1104.59 276.744 1106.51 276.744C1106.99 276.744 1107.47 276.696 1107.9 276.552ZM1120.88 273.744H1116.01C1116.08 275.424 1117.19 276.768 1119.64 276.768C1120.72 276.768 1121.7 276.576 1122.61 276.192C1122.68 276.144 1122.76 276.168 1122.76 276.288V278.28C1122.76 278.424 1122.71 278.496 1122.61 278.544C1121.7 278.976 1120.64 279.24 1119.01 279.24C1114.64 279.24 1113.08 276.168 1113.08 273.216C1113.08 269.88 1115.1 266.928 1118.72 266.928C1122.28 266.928 1123.64 269.712 1123.64 271.992C1123.64 272.664 1123.62 273.216 1123.55 273.48C1123.52 273.576 1123.48 273.624 1123.36 273.648C1123.02 273.72 1122.06 273.744 1120.88 273.744ZM1116.01 271.68H1119.59C1120.5 271.68 1120.81 271.68 1120.91 271.656C1120.91 271.584 1120.91 271.488 1120.91 271.464C1120.91 270.768 1120.43 269.232 1118.6 269.232C1116.95 269.232 1116.2 270.504 1116.01 271.68ZM1125.8 276.144V262.104C1125.8 261.984 1125.88 261.912 1126.02 261.912H1128.49C1128.64 261.912 1128.71 261.984 1128.71 262.104V275.88C1128.71 276.624 1128.97 276.864 1129.55 276.864C1129.74 276.864 1129.79 276.864 1130 276.84C1130.08 276.816 1130.1 276.864 1130.1 276.984V278.784C1130.1 278.952 1130.08 278.976 1129.96 279.048C1129.69 279.168 1129.26 279.24 1128.59 279.24C1127.05 279.24 1125.8 278.664 1125.8 276.144ZM1139.01 269.952C1138.27 269.544 1137.07 269.256 1136.01 269.256C1134.74 269.256 1134.31 269.784 1134.31 270.288C1134.31 270.816 1134.67 271.176 1136.21 271.776C1138.94 272.784 1139.88 273.864 1139.88 275.568C1139.88 277.824 1138.1 279.24 1135.15 279.24C1133.73 279.24 1132.49 278.976 1131.77 278.568C1131.65 278.496 1131.6 278.448 1131.6 278.304V276.024C1131.6 275.904 1131.69 275.856 1131.79 275.904C1132.82 276.576 1134.14 276.864 1135.22 276.864C1136.47 276.864 1137.07 276.432 1137.07 275.808C1137.07 275.208 1136.61 274.824 1135.13 274.224C1132.51 273.264 1131.57 272.184 1131.57 270.456C1131.57 268.632 1133.06 266.928 1136.06 266.928C1137.45 266.928 1138.51 267.12 1139.09 267.408C1139.21 267.48 1139.23 267.576 1139.23 267.696V269.808C1139.23 269.928 1139.16 270 1139.01 269.952Z" fill="white"/>
<path d="M1206 489H1000C995.582 489 992 492.582 992 497V659C992 663.418 995.582 667 1000 667H1206C1210.42 667 1214 663.418 1214 659V497C1214 492.582 1210.42 489 1206 489Z" fill="#3B4253"/>
<path d="M1206 489H1000C995.582 489 992 492.582 992 497V659C992 663.418 995.582 667 1000 667H1206C1210.42 667 1214 663.418 1214 659V497C1214 492.582 1210.42 489 1206 489Z" fill="#3B4253"/>
<path d="M1082.14 602.36V604.496C1082.14 604.64 1082.1 604.76 1081.98 604.808C1081.18 605.096 1080.01 605.24 1078.66 605.24C1074.22 605.24 1070.43 602.624 1070.43 597.152C1070.43 592.328 1073.79 588.992 1079.02 588.992C1080.58 588.992 1081.54 589.136 1082.14 589.4C1082.24 589.448 1082.29 589.52 1082.29 589.664V591.944C1082.29 592.136 1082.19 592.136 1082.1 592.088C1081.33 591.728 1080.22 591.56 1078.98 591.56C1075.59 591.56 1073.43 593.72 1073.43 597.08C1073.43 601.232 1076.5 602.648 1079.02 602.648C1080.2 602.648 1081.09 602.552 1081.98 602.24C1082.07 602.192 1082.14 602.216 1082.14 602.36ZM1084.46 593.168H1086.72C1086.86 593.168 1086.94 593.216 1086.98 593.36C1087.1 593.672 1087.2 594.272 1087.22 594.8C1088.04 593.792 1089.41 592.928 1091.06 592.928C1091.21 592.928 1091.26 592.952 1091.26 593.096V595.64C1091.26 595.76 1091.21 595.808 1091.04 595.808C1089.34 595.76 1087.92 596.36 1087.37 597.08V604.808C1087.37 604.952 1087.3 605 1087.15 605H1084.66C1084.49 605 1084.44 604.928 1084.44 604.808V596.528C1084.44 595.496 1084.42 594.104 1084.32 593.312C1084.32 593.192 1084.34 593.168 1084.46 593.168ZM1100.07 599.744H1095.2C1095.27 601.424 1096.38 602.768 1098.83 602.768C1099.91 602.768 1100.89 602.576 1101.8 602.192C1101.87 602.144 1101.95 602.168 1101.95 602.288V604.28C1101.95 604.424 1101.9 604.496 1101.8 604.544C1100.89 604.976 1099.83 605.24 1098.2 605.24C1093.83 605.24 1092.27 602.168 1092.27 599.216C1092.27 595.88 1094.29 592.928 1097.91 592.928C1101.47 592.928 1102.83 595.712 1102.83 597.992C1102.83 598.664 1102.81 599.216 1102.74 599.48C1102.71 599.576 1102.67 599.624 1102.55 599.648C1102.21 599.72 1101.25 599.744 1100.07 599.744ZM1095.2 597.68H1098.78C1099.69 597.68 1100 597.68 1100.1 597.656C1100.1 597.584 1100.1 597.488 1100.1 597.464C1100.1 596.768 1099.62 595.232 1097.79 595.232C1096.14 595.232 1095.39 596.504 1095.2 597.68ZM1111.14 602.672V599.72C1110.78 599.672 1110.37 599.648 1109.82 599.648C1107.92 599.648 1107.08 600.272 1107.08 601.304C1107.08 602.192 1107.7 602.96 1109.43 602.96C1110.06 602.96 1110.61 602.888 1111.14 602.672ZM1113.94 597.68V602.552C1113.94 603.08 1113.94 603.56 1113.99 604.064C1113.99 604.112 1113.99 604.136 1113.94 604.16C1111.98 605 1110.58 605.24 1108.95 605.24C1106.34 605.24 1104.25 604.016 1104.25 601.304C1104.25 598.76 1106.53 597.488 1109.65 597.488C1110.37 597.488 1110.92 597.512 1111.14 597.536V597.248C1111.14 596.696 1110.82 595.448 1108.71 595.448C1107.51 595.448 1106.46 595.688 1105.57 596.12C1105.5 596.144 1105.38 596.12 1105.38 595.976V593.888C1105.38 593.768 1105.4 593.72 1105.52 593.648C1106.55 593.168 1107.87 592.928 1109.17 592.928C1112.5 592.928 1113.94 595.016 1113.94 597.68ZM1122.45 602.888V604.616C1122.45 604.76 1122.42 604.856 1122.3 604.904C1121.65 605.144 1121.05 605.24 1120.26 605.24C1118.29 605.24 1117.12 604.28 1117.12 601.904V595.592H1115.61C1115.49 595.568 1115.44 595.52 1115.44 595.376V593.36C1115.44 593.216 1115.49 593.168 1115.63 593.168H1117.14C1117.17 592.328 1117.26 590.816 1117.38 590.216C1117.41 590.096 1117.45 590.024 1117.57 590L1120 589.664C1120.12 589.64 1120.17 589.664 1120.17 589.784C1120.09 590.576 1120.05 591.992 1120.05 593.168H1122.37C1122.49 593.168 1122.54 593.216 1122.54 593.336V595.424C1122.54 595.544 1122.49 595.592 1122.37 595.592H1120.02V601.28C1120.02 602.336 1120.36 602.84 1121.39 602.84C1121.7 602.84 1121.97 602.816 1122.3 602.744C1122.37 602.72 1122.45 602.744 1122.45 602.888ZM1131.48 599.744H1126.61C1126.68 601.424 1127.78 602.768 1130.23 602.768C1131.31 602.768 1132.3 602.576 1133.21 602.192C1133.28 602.144 1133.35 602.168 1133.35 602.288V604.28C1133.35 604.424 1133.3 604.496 1133.21 604.544C1132.3 604.976 1131.24 605.24 1129.61 605.24C1125.24 605.24 1123.68 602.168 1123.68 599.216C1123.68 595.88 1125.7 592.928 1129.32 592.928C1132.87 592.928 1134.24 595.712 1134.24 597.992C1134.24 598.664 1134.22 599.216 1134.14 599.48C1134.12 599.576 1134.07 599.624 1133.95 599.648C1133.62 599.72 1132.66 599.744 1131.48 599.744ZM1126.61 597.68H1130.18C1131.1 597.68 1131.41 597.68 1131.5 597.656C1131.5 597.584 1131.5 597.488 1131.5 597.464C1131.5 596.768 1131.02 595.232 1129.2 595.232C1127.54 595.232 1126.8 596.504 1126.61 597.68Z" fill="white"/>
<path d="M1076.67 634.832V619.448C1076.67 619.328 1076.72 619.256 1076.84 619.256C1077.75 619.232 1079.53 619.184 1081.28 619.184C1085.94 619.184 1087.66 621.776 1087.66 624.416C1087.66 628.232 1084.71 629.888 1081.09 629.888C1080.32 629.888 1080.13 629.888 1079.58 629.888V634.808C1079.58 634.928 1079.53 635 1079.38 635H1076.86C1076.74 635 1076.67 634.952 1076.67 634.832ZM1079.58 621.752V627.32C1079.98 627.344 1080.3 627.344 1081.09 627.344C1083.1 627.344 1084.81 626.672 1084.81 624.488C1084.81 622.736 1083.56 621.704 1081.35 621.704C1080.51 621.704 1079.84 621.728 1079.58 621.752ZM1090.03 632.144V618.104C1090.03 617.984 1090.1 617.912 1090.24 617.912H1092.71C1092.86 617.912 1092.93 617.984 1092.93 618.104V631.88C1092.93 632.624 1093.19 632.864 1093.77 632.864C1093.96 632.864 1094.01 632.864 1094.23 632.84C1094.3 632.816 1094.32 632.864 1094.32 632.984V634.784C1094.32 634.952 1094.3 634.976 1094.18 635.048C1093.91 635.168 1093.48 635.24 1092.81 635.24C1091.27 635.24 1090.03 634.664 1090.03 632.144ZM1102.54 632.672V629.72C1102.18 629.672 1101.77 629.648 1101.22 629.648C1099.33 629.648 1098.49 630.272 1098.49 631.304C1098.49 632.192 1099.11 632.96 1100.84 632.96C1101.46 632.96 1102.01 632.888 1102.54 632.672ZM1105.35 627.68V632.552C1105.35 633.08 1105.35 633.56 1105.4 634.064C1105.4 634.112 1105.4 634.136 1105.35 634.16C1103.38 635 1101.99 635.24 1100.36 635.24C1097.74 635.24 1095.65 634.016 1095.65 631.304C1095.65 628.76 1097.93 627.488 1101.05 627.488C1101.77 627.488 1102.33 627.512 1102.54 627.536V627.248C1102.54 626.696 1102.23 625.448 1100.12 625.448C1098.92 625.448 1097.86 625.688 1096.97 626.12C1096.9 626.144 1096.78 626.12 1096.78 625.976V623.888C1096.78 623.768 1096.81 623.72 1096.93 623.648C1097.96 623.168 1099.28 622.928 1100.57 622.928C1103.91 622.928 1105.35 625.016 1105.35 627.68ZM1108.38 634.808V625.928C1108.38 625.112 1108.33 623.816 1108.28 623.336C1108.28 623.216 1108.3 623.168 1108.45 623.168H1110.63C1110.8 623.168 1110.87 623.216 1110.92 623.336C1110.99 623.552 1111.04 623.864 1111.09 624.248C1112.12 623.384 1113.27 622.928 1114.57 622.928C1116.37 622.928 1118.58 623.84 1118.58 627.68V634.784C1118.58 634.952 1118.5 635 1118.38 635H1115.89C1115.74 635 1115.67 634.928 1115.67 634.784V627.944C1115.67 626.36 1115 625.448 1113.61 625.448C1112.65 625.448 1111.86 625.808 1111.28 626.432V634.808C1111.28 634.928 1111.21 635 1111.09 635H1108.57C1108.42 635 1108.38 634.928 1108.38 634.808ZM1128.34 625.952C1127.59 625.544 1126.39 625.256 1125.34 625.256C1124.06 625.256 1123.63 625.784 1123.63 626.288C1123.63 626.816 1123.99 627.176 1125.53 627.776C1128.26 628.784 1129.2 629.864 1129.2 631.568C1129.2 633.824 1127.42 635.24 1124.47 635.24C1123.06 635.24 1121.81 634.976 1121.09 634.568C1120.97 634.496 1120.92 634.448 1120.92 634.304V632.024C1120.92 631.904 1121.02 631.856 1121.11 631.904C1122.14 632.576 1123.46 632.864 1124.54 632.864C1125.79 632.864 1126.39 632.432 1126.39 631.808C1126.39 631.208 1125.94 630.824 1124.45 630.224C1121.83 629.264 1120.9 628.184 1120.9 626.456C1120.9 624.632 1122.38 622.928 1125.38 622.928C1126.78 622.928 1127.83 623.12 1128.41 623.408C1128.53 623.48 1128.55 623.576 1128.55 623.696V625.808C1128.55 625.928 1128.48 626 1128.34 625.952Z" fill="white"/>
<path d="M984.5 225.495H942.075V398.637H870.404" stroke="#B1B8C9" stroke-width="2"/>
<path d="M1214.5 226.564H1256.54V399.706H1328.6" stroke="#B1B8C9" stroke-width="2" stroke-linejoin="round"/>
<path d="M1214.5 572.706H1256.54V399.564H1328.6" stroke="#B1B8C9" stroke-width="2"/>
<path d="M362 399H287.789" stroke="#B1B8C9" stroke-width="2"/>
<path d="M370 399L360 404V394L370 399Z" fill="#FF0000"/>
<path d="M888 311H682C677.582 311 674 314.582 674 319V481C674 485.418 677.582 489 682 489H888C892.418 489 896 485.418 896 481V319C896 314.582 892.418 311 888 311Z" fill="#3B4253"/>
<path d="M747.464 394.36V396.496C747.464 396.64 747.416 396.76 747.296 396.808C746.504 397.096 745.328 397.24 743.984 397.24C739.544 397.24 735.752 394.624 735.752 389.152C735.752 384.328 739.112 380.992 744.344 380.992C745.904 380.992 746.864 381.136 747.464 381.4C747.56 381.448 747.608 381.52 747.608 381.664V383.944C747.608 384.136 747.512 384.136 747.416 384.088C746.648 383.728 745.544 383.56 744.296 383.56C740.912 383.56 738.752 385.72 738.752 389.08C738.752 393.232 741.824 394.648 744.344 394.648C745.52 394.648 746.408 394.552 747.296 394.24C747.392 394.192 747.464 394.216 747.464 394.36ZM754.707 384.928C758.403 384.928 760.419 387.736 760.419 391.024C760.419 394.744 758.043 397.24 754.659 397.24C750.651 397.24 748.875 394.144 748.875 391.096C748.875 387.688 751.107 384.928 754.707 384.928ZM754.563 387.352C752.955 387.352 751.803 388.768 751.803 391.048C751.803 393.256 752.883 394.792 754.707 394.792C756.195 394.792 757.467 393.568 757.467 391.096C757.467 389.104 756.603 387.352 754.563 387.352ZM762.673 396.808V387.928C762.673 387.112 762.625 385.816 762.577 385.336C762.577 385.216 762.601 385.168 762.745 385.168H764.929C765.097 385.168 765.169 385.216 765.217 385.336C765.289 385.552 765.337 385.864 765.385 386.248C766.417 385.384 767.569 384.928 768.865 384.928C770.665 384.928 772.873 385.84 772.873 389.68V396.784C772.873 396.952 772.801 397 772.681 397H770.185C770.041 397 769.969 396.928 769.969 396.784V389.944C769.969 388.36 769.297 387.448 767.905 387.448C766.945 387.448 766.153 387.808 765.577 388.432V396.808C765.577 396.928 765.505 397 765.385 397H762.865C762.721 397 762.673 396.928 762.673 396.808ZM782.971 396.784V385.336C782.971 385.216 783.043 385.168 783.163 385.168H785.707C785.851 385.168 785.899 385.192 785.899 385.336V396.808C785.899 396.952 785.851 397 785.683 397H783.211C783.043 397 782.971 396.928 782.971 396.784ZM784.435 383.536C783.475 383.536 782.827 382.888 782.827 381.928C782.827 380.968 783.523 380.296 784.459 380.296C785.443 380.296 786.067 380.992 786.067 381.928C786.067 382.888 785.419 383.536 784.435 383.536ZM776.203 387.592H774.739C774.619 387.592 774.595 387.544 774.595 387.424V385.312C774.595 385.192 774.643 385.168 774.739 385.168H776.203V384.4C776.203 383.368 776.371 382.456 776.731 381.736C777.331 380.44 778.507 379.696 780.259 379.696C780.907 379.696 781.219 379.744 781.459 379.84C781.579 379.888 781.603 379.96 781.603 380.08V382.168C781.603 382.264 781.555 382.36 781.435 382.312C781.147 382.216 780.883 382.192 780.595 382.192C779.683 382.192 779.107 382.696 779.107 384.28V385.168H781.219C781.387 385.168 781.411 385.216 781.411 385.312V387.424C781.411 387.544 781.363 387.568 781.219 387.592H779.107V396.808C779.107 396.928 779.083 397 778.891 397H776.395C776.251 397 776.203 396.928 776.203 396.808V387.592ZM794.067 396.928L791.451 396.808C790.755 397.288 790.299 398.056 790.299 398.416C790.299 399.256 791.451 400.192 793.443 400.192C795.723 400.192 796.731 399.256 796.731 398.344C796.731 397.288 795.531 397 794.067 396.928ZM792.915 387.016C791.715 387.016 790.971 387.76 790.971 388.984C790.971 390.088 791.643 390.904 792.915 390.904C794.115 390.904 794.835 390.208 794.835 389.032C794.835 387.904 794.259 387.016 792.915 387.016ZM792.243 394.384L794.691 394.48C797.979 394.648 799.395 395.944 799.395 397.912C799.395 400.36 796.995 402.328 793.251 402.328C789.387 402.328 787.635 400.384 787.635 398.632C787.635 397.864 788.283 396.88 789.867 395.512C789.507 394.984 789.339 394.36 789.363 393.712C789.363 393.16 789.507 392.632 789.795 392.152C788.811 391.528 788.139 390.496 788.139 389.032C788.139 386.728 789.891 384.928 792.915 384.928C793.755 384.928 794.523 385 795.027 385.096C795.243 385.144 795.435 385.168 795.579 385.168H798.915C799.035 385.168 799.059 385.216 799.059 385.312V387.28C799.059 387.376 799.035 387.424 798.915 387.424C798.459 387.424 797.595 387.376 797.067 387.304C797.331 387.688 797.595 388.264 797.595 389.128C797.595 391.696 795.555 392.992 792.963 392.992C792.651 392.992 792.315 392.968 792.003 392.92C791.931 393.16 791.883 393.4 791.931 393.64C791.955 393.904 792.051 394.144 792.243 394.384ZM810.745 385.336V394.36C810.745 395.608 810.841 396.328 810.889 396.832C810.913 396.952 810.841 397 810.697 397H808.489C808.321 397 808.273 396.952 808.249 396.856C808.177 396.616 808.105 396.256 808.081 396.016C807.049 396.976 805.825 397.24 804.745 397.24C802.465 397.24 800.713 396.016 800.713 392.656V385.336C800.713 385.192 800.761 385.168 800.905 385.168H803.425C803.569 385.168 803.593 385.216 803.593 385.336V392.32C803.593 393.808 804.241 394.72 805.681 394.72C806.593 394.72 807.265 394.408 807.865 393.856V385.336C807.865 385.216 807.913 385.168 808.057 385.168H810.577C810.721 385.168 810.745 385.216 810.745 385.336ZM813.815 385.168H816.071C816.215 385.168 816.287 385.216 816.335 385.36C816.455 385.672 816.551 386.272 816.575 386.8C817.391 385.792 818.759 384.928 820.415 384.928C820.559 384.928 820.607 384.952 820.607 385.096V387.64C820.607 387.76 820.559 387.808 820.391 387.808C818.687 387.76 817.271 388.36 816.719 389.08V396.808C816.719 396.952 816.647 397 816.503 397H814.007C813.839 397 813.791 396.928 813.791 396.808V388.528C813.791 387.496 813.767 386.104 813.671 385.312C813.671 385.192 813.695 385.168 813.815 385.168ZM829.425 391.744H824.553C824.625 393.424 825.729 394.768 828.177 394.768C829.257 394.768 830.241 394.576 831.153 394.192C831.225 394.144 831.297 394.168 831.297 394.288V396.28C831.297 396.424 831.249 396.496 831.153 396.544C830.241 396.976 829.185 397.24 827.553 397.24C823.185 397.24 821.625 394.168 821.625 391.216C821.625 387.88 823.641 384.928 827.265 384.928C830.817 384.928 832.185 387.712 832.185 389.992C832.185 390.664 832.161 391.216 832.089 391.48C832.065 391.576 832.017 391.624 831.897 391.648C831.561 391.72 830.601 391.744 829.425 391.744ZM824.553 389.68H828.129C829.041 389.68 829.353 389.68 829.449 389.656C829.449 389.584 829.449 389.488 829.449 389.464C829.449 388.768 828.969 387.232 827.145 387.232C825.489 387.232 824.745 388.504 824.553 389.68Z" fill="white"/>
<path d="M749.756 411.376C749.78 411.232 749.828 411.232 749.948 411.232H753.788C753.932 411.232 753.98 411.28 754.028 411.4C754.748 413.824 756.836 420.952 757.316 423.184H757.34C757.844 421.144 760.22 413.872 760.964 411.4C761.012 411.304 761.036 411.232 761.18 411.232H764.924C765.044 411.232 765.092 411.256 765.116 411.376L765.764 426.808C765.788 426.952 765.716 427 765.596 427H762.932C762.812 427 762.74 426.976 762.74 426.832C762.62 421.72 762.572 414.808 762.596 413.296H762.572C762.02 415.6 759.548 423.616 758.588 426.808C758.564 426.976 758.468 427 758.372 427H755.972C755.804 427 755.756 426.976 755.732 426.832C754.7 423.184 752.78 416.2 752.108 413.272H752.06C752.036 415.696 751.844 421.792 751.604 426.832C751.604 426.976 751.556 427 751.412 427H749.012C748.868 427 748.82 426.976 748.844 426.808L749.756 411.376ZM773.69 414.928C777.386 414.928 779.402 417.736 779.402 421.024C779.402 424.744 777.026 427.24 773.642 427.24C769.634 427.24 767.858 424.144 767.858 421.096C767.858 417.688 770.09 414.928 773.69 414.928ZM773.546 417.352C771.938 417.352 770.786 418.768 770.786 421.048C770.786 423.256 771.866 424.792 773.69 424.792C775.178 424.792 776.45 423.568 776.45 421.096C776.45 419.104 775.586 417.352 773.546 417.352ZM787.197 427.24C783.717 427.24 781.053 425.224 781.053 421.192C781.053 417.712 783.645 414.928 787.869 414.928C788.205 414.928 788.493 414.952 788.901 415V410.08C788.901 409.96 788.949 409.912 789.045 409.912H791.661C791.781 409.912 791.781 409.96 791.781 410.056V424.552C791.781 425.032 791.829 425.656 791.877 426.088C791.877 426.208 791.853 426.256 791.733 426.304C790.173 426.976 788.637 427.24 787.197 427.24ZM788.901 424.552V417.52C788.589 417.4 788.205 417.352 787.773 417.352C785.637 417.352 784.029 418.72 784.029 421.048C784.029 423.664 785.589 424.744 787.509 424.744C787.989 424.744 788.469 424.696 788.901 424.552ZM801.884 421.744H797.012C797.084 423.424 798.188 424.768 800.636 424.768C801.716 424.768 802.7 424.576 803.612 424.192C803.684 424.144 803.756 424.168 803.756 424.288V426.28C803.756 426.424 803.708 426.496 803.612 426.544C802.7 426.976 801.644 427.24 800.012 427.24C795.644 427.24 794.084 424.168 794.084 421.216C794.084 417.88 796.1 414.928 799.724 414.928C803.276 414.928 804.644 417.712 804.644 419.992C804.644 420.664 804.62 421.216 804.548 421.48C804.524 421.576 804.476 421.624 804.356 421.648C804.02 421.72 803.06 421.744 801.884 421.744ZM797.012 419.68H800.588C801.5 419.68 801.812 419.68 801.908 419.656C801.908 419.584 801.908 419.488 801.908 419.464C801.908 418.768 801.428 417.232 799.604 417.232C797.948 417.232 797.204 418.504 797.012 419.68ZM806.805 424.144V410.104C806.805 409.984 806.877 409.912 807.021 409.912H809.493C809.637 409.912 809.709 409.984 809.709 410.104V423.88C809.709 424.624 809.973 424.864 810.549 424.864C810.741 424.864 810.789 424.864 811.005 424.84C811.077 424.816 811.101 424.864 811.101 424.984V426.784C811.101 426.952 811.077 426.976 810.957 427.048C810.693 427.168 810.261 427.24 809.589 427.24C808.053 427.24 806.805 426.664 806.805 424.144ZM820.014 417.952C819.27 417.544 818.07 417.256 817.014 417.256C815.742 417.256 815.31 417.784 815.31 418.288C815.31 418.816 815.67 419.176 817.206 419.776C819.942 420.784 820.878 421.864 820.878 423.568C820.878 425.824 819.102 427.24 816.15 427.24C814.734 427.24 813.486 426.976 812.766 426.568C812.646 426.496 812.598 426.448 812.598 426.304V424.024C812.598 423.904 812.694 423.856 812.79 423.904C813.822 424.576 815.142 424.864 816.222 424.864C817.47 424.864 818.07 424.432 818.07 423.808C818.07 423.208 817.614 422.824 816.126 422.224C813.51 421.264 812.574 420.184 812.574 418.456C812.574 416.632 814.062 414.928 817.062 414.928C818.454 414.928 819.51 415.12 820.086 415.408C820.206 415.48 820.23 415.576 820.23 415.696V417.808C820.23 417.928 820.158 418 820.014 417.952Z" fill="white"/>
<path d="M1530 311H1324C1319.58 311 1316 314.582 1316 319V481C1316 485.418 1319.58 489 1324 489H1530C1534.42 489 1538 485.418 1538 481V319C1538 314.582 1534.42 311 1530 311Z" fill="#3B4253"/>
<path d="M1385.52 410.992C1390.22 410.992 1392.91 414.592 1392.93 419.032C1392.96 424 1389.88 427.24 1385.52 427.24C1380.86 427.24 1378.08 423.784 1378.08 419.104C1378.08 414.496 1381.1 410.992 1385.52 410.992ZM1381.08 419.104C1381.08 422.2 1382.66 424.672 1385.61 424.672C1388.32 424.672 1389.96 422.44 1389.93 419.104C1389.93 415.744 1388.28 413.56 1385.47 413.56C1382.92 413.56 1381.08 415.552 1381.08 419.104ZM1401.38 427H1398.62C1398.47 427 1398.43 426.928 1398.38 426.856C1397.59 424.552 1395.26 417.736 1394.42 415.336C1394.39 415.24 1394.42 415.168 1394.56 415.168H1397.3C1397.42 415.168 1397.47 415.192 1397.51 415.312C1399.24 420.928 1399.87 423.232 1400.11 424.288H1400.15C1400.42 423.232 1401.14 420.952 1402.96 415.312C1402.99 415.192 1403.06 415.168 1403.15 415.168H1405.58C1405.65 415.168 1405.75 415.216 1405.7 415.36C1404.79 417.88 1402.46 424.6 1401.64 426.832C1401.59 426.952 1401.52 427 1401.38 427ZM1414.47 421.744H1409.6C1409.67 423.424 1410.77 424.768 1413.22 424.768C1414.3 424.768 1415.28 424.576 1416.2 424.192C1416.27 424.144 1416.34 424.168 1416.34 424.288V426.28C1416.34 426.424 1416.29 426.496 1416.2 426.544C1415.28 426.976 1414.23 427.24 1412.6 427.24C1408.23 427.24 1406.67 424.168 1406.67 421.216C1406.67 417.88 1408.68 414.928 1412.31 414.928C1415.86 414.928 1417.23 417.712 1417.23 419.992C1417.23 420.664 1417.2 421.216 1417.13 421.48C1417.11 421.576 1417.06 421.624 1416.94 421.648C1416.6 421.72 1415.64 421.744 1414.47 421.744ZM1409.6 419.68H1413.17C1414.08 419.68 1414.4 419.68 1414.49 419.656C1414.49 419.584 1414.49 419.488 1414.49 419.464C1414.49 418.768 1414.01 417.232 1412.19 417.232C1410.53 417.232 1409.79 418.504 1409.6 419.68ZM1419.48 415.168H1421.74C1421.88 415.168 1421.95 415.216 1422 415.36C1422.12 415.672 1422.22 416.272 1422.24 416.8C1423.06 415.792 1424.43 414.928 1426.08 414.928C1426.23 414.928 1426.27 414.952 1426.27 415.096V417.64C1426.27 417.76 1426.23 417.808 1426.06 417.808C1424.35 417.76 1422.94 418.36 1422.39 419.08V426.808C1422.39 426.952 1422.31 427 1422.17 427H1419.67C1419.51 427 1419.46 426.928 1419.46 426.808V418.528C1419.46 417.496 1419.43 416.104 1419.34 415.312C1419.34 415.192 1419.36 415.168 1419.48 415.168ZM1434.33 427H1431.57C1431.43 427 1431.38 426.928 1431.33 426.856C1430.54 424.552 1428.21 417.736 1427.37 415.336C1427.35 415.24 1427.37 415.168 1427.52 415.168H1430.25C1430.37 415.168 1430.42 415.192 1430.47 415.312C1432.2 420.928 1432.82 423.232 1433.06 424.288H1433.11C1433.37 423.232 1434.09 420.952 1435.92 415.312C1435.94 415.192 1436.01 415.168 1436.11 415.168H1438.53C1438.6 415.168 1438.7 415.216 1438.65 415.36C1437.74 417.88 1435.41 424.6 1434.6 426.832C1434.55 426.952 1434.48 427 1434.33 427ZM1440.39 426.784V415.336C1440.39 415.216 1440.46 415.168 1440.58 415.168H1443.12C1443.27 415.168 1443.32 415.192 1443.32 415.336V426.808C1443.32 426.952 1443.27 427 1443.1 427H1440.63C1440.46 427 1440.39 426.928 1440.39 426.784ZM1441.85 413.56C1440.87 413.56 1440.22 412.888 1440.22 411.904C1440.22 410.92 1440.92 410.248 1441.88 410.248C1442.91 410.248 1443.51 410.944 1443.51 411.904C1443.51 412.888 1442.86 413.56 1441.85 413.56ZM1453.4 421.744H1448.53C1448.6 423.424 1449.7 424.768 1452.15 424.768C1453.23 424.768 1454.21 424.576 1455.13 424.192C1455.2 424.144 1455.27 424.168 1455.27 424.288V426.28C1455.27 426.424 1455.22 426.496 1455.13 426.544C1454.21 426.976 1453.16 427.24 1451.53 427.24C1447.16 427.24 1445.6 424.168 1445.6 421.216C1445.6 417.88 1447.61 414.928 1451.24 414.928C1454.79 414.928 1456.16 417.712 1456.16 419.992C1456.16 420.664 1456.13 421.216 1456.06 421.48C1456.04 421.576 1455.99 421.624 1455.87 421.648C1455.53 421.72 1454.57 421.744 1453.4 421.744ZM1448.53 419.68H1452.1C1453.01 419.68 1453.33 419.68 1453.42 419.656C1453.42 419.584 1453.42 419.488 1453.42 419.464C1453.42 418.768 1452.94 417.232 1451.12 417.232C1449.46 417.232 1448.72 418.504 1448.53 419.68ZM1471 427H1468.36C1468.2 427 1468.15 426.928 1468.1 426.784C1466.71 421.432 1466.3 419.296 1466.06 418.12H1466.04C1465.48 420.52 1464.88 422.824 1463.76 426.808C1463.71 426.952 1463.64 427 1463.49 427H1460.88C1460.64 427 1460.61 426.952 1460.56 426.808L1457.44 415.36C1457.4 415.24 1457.47 415.168 1457.61 415.168H1460.25C1460.37 415.168 1460.42 415.192 1460.44 415.312C1461.88 420.952 1462.24 423.232 1462.41 424.192H1462.46C1462.65 423.352 1463.06 421.168 1464.64 415.36C1464.67 415.216 1464.69 415.168 1464.86 415.168H1467.62C1467.74 415.168 1467.79 415.216 1467.81 415.312C1469.3 421.168 1469.64 423.304 1469.83 424.264H1469.88C1470.16 422.824 1470.52 420.424 1471.92 415.312C1471.94 415.216 1472.01 415.168 1472.13 415.168H1474.56C1474.65 415.168 1474.75 415.216 1474.7 415.336L1471.27 426.808C1471.2 426.952 1471.17 427 1471 427Z" fill="white"/>
<path d="M1372.54 456.784V441.448C1372.54 441.328 1372.57 441.28 1372.71 441.256C1373.41 441.232 1375.04 441.184 1377.25 441.184C1382.89 441.184 1385.72 444.376 1385.72 448.84C1385.72 454.696 1381.26 457.048 1377.2 457.048C1375.69 457.048 1373.48 457.048 1372.71 457C1372.62 457 1372.54 456.928 1372.54 456.784ZM1375.45 443.752V454.504C1375.93 454.528 1376.46 454.528 1377.08 454.528C1380.46 454.528 1382.74 452.56 1382.74 448.912C1382.74 445.432 1380.46 443.704 1377.22 443.704C1376.55 443.704 1376.02 443.728 1375.45 443.752ZM1394.2 454.672V451.72C1393.84 451.672 1393.43 451.648 1392.88 451.648C1390.98 451.648 1390.14 452.272 1390.14 453.304C1390.14 454.192 1390.76 454.96 1392.49 454.96C1393.12 454.96 1393.67 454.888 1394.2 454.672ZM1397 449.68V454.552C1397 455.08 1397 455.56 1397.05 456.064C1397.05 456.112 1397.05 456.136 1397 456.16C1395.04 457 1393.64 457.24 1392.01 457.24C1389.4 457.24 1387.31 456.016 1387.31 453.304C1387.31 450.76 1389.59 449.488 1392.71 449.488C1393.43 449.488 1393.98 449.512 1394.2 449.536V449.248C1394.2 448.696 1393.88 447.448 1391.77 447.448C1390.57 447.448 1389.52 447.688 1388.63 448.12C1388.56 448.144 1388.44 448.12 1388.44 447.976V445.888C1388.44 445.768 1388.46 445.72 1388.58 445.648C1389.61 445.168 1390.93 444.928 1392.23 444.928C1395.56 444.928 1397 447.016 1397 449.68ZM1406.72 447.952C1405.98 447.544 1404.78 447.256 1403.72 447.256C1402.45 447.256 1402.02 447.784 1402.02 448.288C1402.02 448.816 1402.38 449.176 1403.92 449.776C1406.65 450.784 1407.59 451.864 1407.59 453.568C1407.59 455.824 1405.81 457.24 1402.86 457.24C1401.44 457.24 1400.2 456.976 1399.48 456.568C1399.36 456.496 1399.31 456.448 1399.31 456.304V454.024C1399.31 453.904 1399.4 453.856 1399.5 453.904C1400.53 454.576 1401.85 454.864 1402.93 454.864C1404.18 454.864 1404.78 454.432 1404.78 453.808C1404.78 453.208 1404.32 452.824 1402.84 452.224C1400.22 451.264 1399.28 450.184 1399.28 448.456C1399.28 446.632 1400.77 444.928 1403.77 444.928C1405.16 444.928 1406.22 445.12 1406.8 445.408C1406.92 445.48 1406.94 445.576 1406.94 445.696V447.808C1406.94 447.928 1406.87 448 1406.72 447.952ZM1412.54 448.288V456.832C1412.54 456.952 1412.52 457 1412.38 457H1409.83C1409.69 457 1409.64 456.928 1409.64 456.808V440.08C1409.64 439.984 1409.69 439.912 1409.83 439.912H1412.38C1412.52 439.912 1412.54 439.96 1412.54 440.08V446.032C1413.46 445.36 1414.46 444.928 1415.83 444.928C1417.66 444.928 1419.84 445.84 1419.84 449.68V456.784C1419.84 456.952 1419.77 457 1419.65 457H1417.15C1417.01 457 1416.94 456.928 1416.94 456.784V449.968C1416.94 448.36 1416.24 447.448 1414.85 447.448C1413.96 447.448 1413.17 447.736 1412.54 448.288ZM1423.05 439.912H1425.57C1425.74 439.912 1425.79 439.936 1425.79 440.104L1425.81 445.264C1426.46 445.048 1427.2 444.928 1427.99 444.928C1431.45 444.928 1433.66 447.376 1433.66 450.592C1433.66 455.032 1430.2 457.24 1426.65 457.24C1425.4 457.24 1424.2 457.072 1423.05 456.712C1422.95 456.688 1422.88 456.568 1422.88 456.496V440.08C1422.88 439.96 1422.95 439.912 1423.05 439.912ZM1430.71 450.88C1430.71 448.6 1429.39 447.4 1427.49 447.4C1426.65 447.4 1426.19 447.52 1425.81 447.664V454.672C1426.15 454.768 1426.51 454.792 1426.91 454.792C1428.88 454.792 1430.71 453.544 1430.71 450.88ZM1441.19 444.928C1444.88 444.928 1446.9 447.736 1446.9 451.024C1446.9 454.744 1444.52 457.24 1441.14 457.24C1437.13 457.24 1435.36 454.144 1435.36 451.096C1435.36 447.688 1437.59 444.928 1441.19 444.928ZM1441.04 447.352C1439.44 447.352 1438.28 448.768 1438.28 451.048C1438.28 453.256 1439.36 454.792 1441.19 454.792C1442.68 454.792 1443.95 453.568 1443.95 451.096C1443.95 449.104 1443.08 447.352 1441.04 447.352ZM1455.34 454.672V451.72C1454.98 451.672 1454.58 451.648 1454.02 451.648C1452.13 451.648 1451.29 452.272 1451.29 453.304C1451.29 454.192 1451.91 454.96 1453.64 454.96C1454.26 454.96 1454.82 454.888 1455.34 454.672ZM1458.15 449.68V454.552C1458.15 455.08 1458.15 455.56 1458.2 456.064C1458.2 456.112 1458.2 456.136 1458.15 456.16C1456.18 457 1454.79 457.24 1453.16 457.24C1450.54 457.24 1448.46 456.016 1448.46 453.304C1448.46 450.76 1450.74 449.488 1453.86 449.488C1454.58 449.488 1455.13 449.512 1455.34 449.536V449.248C1455.34 448.696 1455.03 447.448 1452.92 447.448C1451.72 447.448 1450.66 447.688 1449.78 448.12C1449.7 448.144 1449.58 448.12 1449.58 447.976V445.888C1449.58 445.768 1449.61 445.72 1449.73 445.648C1450.76 445.168 1452.08 444.928 1453.38 444.928C1456.71 444.928 1458.15 447.016 1458.15 449.68ZM1461.2 445.168H1463.46C1463.6 445.168 1463.67 445.216 1463.72 445.36C1463.84 445.672 1463.94 446.272 1463.96 446.8C1464.78 445.792 1466.15 444.928 1467.8 444.928C1467.95 444.928 1467.99 444.952 1467.99 445.096V447.64C1467.99 447.76 1467.95 447.808 1467.78 447.808C1466.07 447.76 1464.66 448.36 1464.11 449.08V456.808C1464.11 456.952 1464.03 457 1463.89 457H1461.39C1461.23 457 1461.18 456.928 1461.18 456.808V448.528C1461.18 447.496 1461.15 446.104 1461.06 445.312C1461.06 445.192 1461.08 445.168 1461.2 445.168ZM1475.16 457.24C1471.68 457.24 1469.01 455.224 1469.01 451.192C1469.01 447.712 1471.6 444.928 1475.83 444.928C1476.16 444.928 1476.45 444.952 1476.86 445V440.08C1476.86 439.96 1476.91 439.912 1477 439.912H1479.62C1479.74 439.912 1479.74 439.96 1479.74 440.056V454.552C1479.74 455.032 1479.79 455.656 1479.84 456.088C1479.84 456.208 1479.81 456.256 1479.69 456.304C1478.13 456.976 1476.6 457.24 1475.16 457.24ZM1476.86 454.552V447.52C1476.55 447.4 1476.16 447.352 1475.73 447.352C1473.6 447.352 1471.99 448.72 1471.99 451.048C1471.99 453.664 1473.55 454.744 1475.47 454.744C1475.95 454.744 1476.43 454.696 1476.86 454.552Z" fill="white"/>
<mask id="mask1_4_2" style="mask-type:luminance" maskUnits="userSpaceOnUse" x="152" y="329" width="50" height="50">
<path d="M202 329H152V379H202V329Z" fill="white"/>
</mask>
<g mask="url(#mask1_4_2)">
<path d="M177 345.666C189.273 345.666 199.222 342.557 199.222 338.722C199.222 334.887 189.273 331.778 177 331.778C164.727 331.778 154.778 334.887 154.778 338.722C154.778 342.557 164.727 345.666 177 345.666Z" fill="white"/>
<path d="M177 362.715C170.144 362.715 157.261 361.091 154.778 357.159V369.278C154.778 373.113 164.727 376.222 177 376.222C189.273 376.222 199.222 373.112 199.222 369.278V357.153C195.824 361.451 183.856 362.715 177 362.715Z" fill="white"/>
<path d="M177 348.826C170.144 348.826 157.261 347.202 154.778 343.263V352.61C154.778 356.445 164.727 359.554 177 359.554C189.273 359.554 199.222 356.444 199.222 352.61V343.264C195.824 347.562 183.856 348.826 177 348.826Z" fill="white"/>
</g>
<mask id="mask2_4_2" style="mask-type:luminance" maskUnits="userSpaceOnUse" x="456" y="329" width="50" height="50">
<path d="M506 329H456V379H506V329Z" fill="white"/>
</mask>
<g mask="url(#mask2_4_2)">
<path d="M481 345.666C493.273 345.666 503.222 342.557 503.222 338.722C503.222 334.887 493.273 331.778 481 331.778C468.727 331.778 458.778 334.887 458.778 338.722C458.778 342.557 468.727 345.666 481 345.666Z" fill="white"/>
<path d="M476.417 366.5C476.421 365.171 476.581 363.848 476.892 362.556C469.917 362.067 460.824 360.396 458.778 357.156V369.278C458.778 372.949 467.9 375.945 479.443 376.197C477.469 373.349 476.413 369.965 476.417 366.5Z" fill="white"/>
<path d="M493.5 349.417C496.976 349.414 500.369 350.477 503.222 352.463V343.263C499.822 347.563 487.855 348.819 481 348.819C474.145 348.819 461.261 347.2 458.778 343.264V352.611C458.778 356.121 467.111 359.011 477.936 359.482C479.286 356.484 481.472 353.939 484.233 352.154C486.994 350.368 490.212 349.418 493.5 349.417Z" fill="white"/>
<path d="M493.5 354.139C491.055 354.139 488.665 354.864 486.633 356.222C484.6 357.58 483.016 359.511 482.08 361.77C481.144 364.028 480.9 366.514 481.377 368.912C481.854 371.309 483.031 373.512 484.759 375.241C486.488 376.969 488.691 378.147 491.089 378.623C493.486 379.1 495.972 378.856 498.23 377.92C500.489 376.985 502.42 375.4 503.778 373.367C505.136 371.335 505.861 368.945 505.861 366.5C505.861 363.222 504.559 360.078 502.241 357.759C499.922 355.441 496.778 354.139 493.5 354.139ZM490.253 374.017L484.52 368.285C484.456 368.221 484.404 368.144 484.369 368.06C484.334 367.976 484.317 367.885 484.317 367.794C484.317 367.703 484.334 367.613 484.369 367.528C484.404 367.444 484.456 367.367 484.52 367.303L485.959 365.864C486.023 365.799 486.1 365.748 486.184 365.713C486.269 365.678 486.359 365.66 486.45 365.66C486.541 365.66 486.632 365.678 486.716 365.713C486.8 365.748 486.877 365.799 486.941 365.864L490.734 369.657L499.215 361.176C499.279 361.111 499.356 361.06 499.44 361.025C499.525 360.99 499.615 360.972 499.706 360.972C499.797 360.972 499.888 360.99 499.972 361.025C500.056 361.06 500.133 361.111 500.197 361.176L501.646 362.625C501.711 362.689 501.762 362.766 501.797 362.85C501.832 362.934 501.85 363.025 501.85 363.116C501.85 363.207 501.832 363.298 501.797 363.382C501.762 363.466 501.711 363.543 501.646 363.607L491.228 374.024C491.097 374.151 490.922 374.222 490.739 374.221C490.557 374.219 490.382 374.146 490.253 374.017Z" fill="white"/>
</g>
<mask id="mask3_4_2" style="mask-type:luminance" maskUnits="userSpaceOnUse" x="1078" y="151" width="50" height="50">
<path d="M1128 151H1078V201H1128V151Z" fill="white"/>
</mask>
<g mask="url(#mask3_4_2)">
<path d="M1100.22 153.778V167.667H1086.33L1100.22 153.778Z" fill="white"/>
<path d="M1105.78 198.222V175.807C1105.78 171.224 1112.26 169.14 1118.28 169.14C1118.74 169.14 1119.2 169.175 1119.67 169.2V155.167C1119.67 154.799 1119.52 154.445 1119.26 154.185C1119 153.924 1118.65 153.778 1118.28 153.778H1103V169.056C1103 169.424 1102.85 169.778 1102.59 170.038C1102.33 170.299 1101.98 170.445 1101.61 170.445H1086.33V196.833C1086.33 197.201 1086.48 197.555 1086.74 197.815C1087 198.076 1087.35 198.222 1087.72 198.222H1105.78Z" fill="white"/>
<path d="M1118.28 189.889C1112.91 189.889 1108.56 188.149 1108.56 186V180.444C1108.56 182.591 1112.91 184.702 1118.28 184.702C1123.65 184.702 1128 182.592 1128 180.444V186C1128 188.149 1123.65 189.889 1118.28 189.889ZM1128 197.082V189.918C1128 192.065 1123.65 193.807 1118.28 193.807C1112.91 193.807 1108.56 192.067 1108.56 189.918V197.083C1108.56 199.23 1112.91 200.972 1118.28 200.972C1123.65 200.972 1128 199.231 1128 197.082ZM1128 176.154C1128 174.007 1123.56 172.507 1118.19 172.507C1112.82 172.507 1108.55 174.007 1108.55 176.154C1108.55 178.301 1112.91 180.043 1118.28 180.043C1123.65 180.043 1128 178.3 1128 176.154Z" fill="white"/>
</g>
<mask id="mask4_4_2" style="mask-type:luminance" maskUnits="userSpaceOnUse" x="1078" y="505" width="50" height="50">
<path d="M1128 505H1078V555H1128V505Z" fill="white"/>
</mask>
<g mask="url(#mask4_4_2)">
<path d="M1105.78 507.778V521.667H1119.67L1105.78 507.778Z" fill="white"/>
<path d="M1104.39 524.444H1119.67V550.833C1119.67 551.201 1119.52 551.555 1119.26 551.815C1119 552.076 1118.65 552.222 1118.28 552.222H1087.72C1087.35 552.222 1087 552.076 1086.74 551.815C1086.48 551.555 1086.33 551.201 1086.33 550.833V509.167C1086.33 508.799 1086.48 508.445 1086.74 508.185C1087 507.924 1087.35 507.778 1087.72 507.778H1103V523.056C1103 523.424 1103.15 523.777 1103.41 524.038C1103.67 524.298 1104.02 524.444 1104.39 524.444ZM1105.08 538.333H1100.92C1100.83 538.333 1100.74 538.351 1100.65 538.386C1100.57 538.421 1100.49 538.472 1100.43 538.536C1100.36 538.601 1100.31 538.677 1100.28 538.761C1100.24 538.846 1100.22 538.936 1100.22 539.027V545.971C1100.22 546.062 1100.24 546.152 1100.28 546.237C1100.31 546.321 1100.36 546.397 1100.43 546.462C1100.49 546.526 1100.57 546.577 1100.65 546.612C1100.74 546.647 1100.83 546.665 1100.92 546.665H1105.08C1105.18 546.665 1105.27 546.647 1105.35 546.612C1105.43 546.577 1105.51 546.526 1105.57 546.462C1105.64 546.397 1105.69 546.321 1105.73 546.237C1105.76 546.152 1105.78 546.062 1105.78 545.971V539.028C1105.78 538.937 1105.76 538.846 1105.73 538.762C1105.69 538.678 1105.64 538.601 1105.57 538.536C1105.51 538.472 1105.43 538.421 1105.35 538.386C1105.26 538.351 1105.17 538.333 1105.08 538.333ZM1096.75 541.111H1092.58C1092.4 541.111 1092.22 541.184 1092.09 541.314C1091.96 541.444 1091.89 541.621 1091.89 541.805V545.972C1091.89 546.063 1091.91 546.153 1091.94 546.238C1091.98 546.322 1092.03 546.398 1092.09 546.463C1092.16 546.527 1092.23 546.578 1092.32 546.613C1092.4 546.648 1092.49 546.666 1092.58 546.666H1096.75C1096.84 546.666 1096.93 546.648 1097.02 546.613C1097.1 546.578 1097.18 546.527 1097.24 546.463C1097.31 546.398 1097.36 546.322 1097.39 546.238C1097.43 546.153 1097.44 546.063 1097.44 545.972V541.806C1097.44 541.715 1097.43 541.624 1097.39 541.54C1097.36 541.456 1097.31 541.379 1097.24 541.315C1097.18 541.25 1097.1 541.199 1097.02 541.164C1096.93 541.129 1096.84 541.111 1096.75 541.111ZM1113.42 532.778H1109.25C1109.07 532.778 1108.89 532.851 1108.76 532.981C1108.63 533.111 1108.56 533.288 1108.56 533.472V545.972C1108.56 546.156 1108.63 546.333 1108.76 546.463C1108.89 546.593 1109.07 546.666 1109.25 546.666H1113.42C1113.6 546.666 1113.78 546.593 1113.91 546.463C1114.04 546.333 1114.11 546.156 1114.11 545.972V533.472C1114.11 533.288 1114.04 533.111 1113.91 532.981C1113.78 532.851 1113.6 532.778 1113.42 532.778Z" fill="white"/>
</g>
<mask id="mask5_4_2" style="mask-type:luminance" maskUnits="userSpaceOnUse" x="1402" y="329" width="50" height="50">
<path d="M1452 329H1402V379H1452V329Z" fill="white"/>
</mask>
<g mask="url(#mask5_4_2)">
<path d="M1412.17 367.962C1409.83 364.836 1408.53 361.046 1408.48 357.138C1408.47 352.29 1410.33 347.624 1413.68 344.122C1417.04 340.621 1421.62 338.556 1426.46 338.362C1429.94 338.26 1433.38 339.142 1436.38 340.906C1439.39 342.671 1441.83 345.247 1443.44 348.338C1445.04 351.429 1445.74 354.91 1445.46 358.382C1445.17 361.853 1443.91 365.173 1441.83 367.962C1441.67 368.167 1441.59 368.426 1441.62 368.684C1441.64 368.943 1441.77 369.182 1441.97 369.351L1443.26 370.427C1443.36 370.513 1443.48 370.578 1443.61 370.619C1443.74 370.659 1443.87 370.674 1444 370.663C1444.14 370.651 1444.27 370.614 1444.38 370.552C1444.5 370.491 1444.61 370.406 1444.69 370.304L1444.72 370.278C1447.21 366.981 1448.74 363.053 1449.12 358.935C1449.51 354.818 1448.74 350.675 1446.9 346.972C1445.05 343.27 1442.22 340.154 1438.7 337.976C1435.19 335.798 1431.13 334.644 1427 334.644C1422.86 334.644 1418.81 335.798 1415.29 337.976C1411.78 340.154 1408.94 343.27 1407.1 346.972C1405.26 350.675 1404.49 354.818 1404.87 358.935C1405.26 363.053 1406.78 366.981 1409.28 370.278C1409.36 370.383 1409.46 370.47 1409.58 370.536C1409.69 370.601 1409.82 370.643 1409.95 370.659C1410.09 370.675 1410.22 370.665 1410.35 370.629C1410.48 370.594 1410.6 370.533 1410.7 370.451L1410.73 370.427L1412.02 369.349C1412.22 369.182 1412.35 368.944 1412.38 368.685C1412.41 368.427 1412.33 368.167 1412.17 367.962Z" fill="white"/>
<path d="M1430.94 361.675C1431.12 362.455 1431.06 363.269 1430.77 364.014C1430.48 364.76 1429.98 365.403 1429.33 365.864C1428.68 366.324 1427.9 366.58 1427.1 366.6C1426.3 366.62 1425.52 366.403 1424.84 365.975C1424.17 365.548 1423.63 364.931 1423.31 364.2C1422.98 363.47 1422.88 362.66 1423.02 361.873C1423.16 361.085 1423.52 360.356 1424.07 359.777C1424.62 359.198 1425.33 358.796 1426.11 358.62C1427.15 358.388 1433.8 350.009 1434.65 350.502C1435.59 351.043 1430.69 360.536 1430.94 361.675Z" fill="white"/>
<path d="M1412.86 359.095C1414.09 359.095 1415.08 358.1 1415.08 356.873C1415.08 355.646 1414.09 354.651 1412.86 354.651C1411.63 354.651 1410.64 355.646 1410.64 356.873C1410.64 358.1 1411.63 359.095 1412.86 359.095Z" fill="white"/>
<path d="M1416.9 348.994C1418.13 348.994 1419.12 347.999 1419.12 346.772C1419.12 345.545 1418.13 344.55 1416.9 344.55C1415.67 344.55 1414.68 345.545 1414.68 346.772C1414.68 347.999 1415.67 348.994 1416.9 348.994Z" fill="white"/>
<path d="M1437.1 348.793C1438.22 348.793 1439.12 347.888 1439.12 346.772C1439.12 345.656 1438.22 344.751 1437.1 344.751C1435.99 344.751 1435.08 345.656 1435.08 346.772C1435.08 347.888 1435.99 348.793 1437.1 348.793Z" fill="white"/>
<path d="M1427 344.753C1428.12 344.753 1429.02 343.848 1429.02 342.732C1429.02 341.616 1428.12 340.711 1427 340.711C1425.88 340.711 1424.98 341.616 1424.98 342.732C1424.98 343.848 1425.88 344.753 1427 344.753Z" fill="white"/>
<path d="M1441.14 358.895C1442.26 358.895 1443.16 357.99 1443.16 356.874C1443.16 355.758 1442.26 354.853 1441.14 354.853C1440.03 354.853 1439.12 355.758 1439.12 356.874C1439.12 357.99 1440.03 358.895 1441.14 358.895Z" fill="white"/>
</g>
<path d="M1426.7 310.09V61.77L485.609 61.77V310.09" stroke="#B1B8C9" stroke-width="2" stroke-dasharray="2 2"/>
<path d="M1427 312L1422 302H1432L1427 312Z" fill="#FF0000"/>
<path d="M667 399H592.789" stroke="#B1B8C9" stroke-width="2"/>
<path d="M675 399L665 404V394L675 399Z" fill="#FF0000"/>
<path d="M992 226L982 231V221L992 226Z" fill="#FF0000"/>
<path d="M1316 400L1306 405V395L1316 400Z" fill="#FF0000"/>
<path d="M888 311H682C677.582 311 674 314.582 674 319V481C674 485.418 677.582 489 682 489H888C892.418 489 896 485.418 896 481V319C896 314.582 892.418 311 888 311Z" fill="#3B4253"/>
<path d="M747.464 424.36V426.496C747.464 426.64 747.416 426.76 747.296 426.808C746.504 427.096 745.328 427.24 743.984 427.24C739.544 427.24 735.752 424.624 735.752 419.152C735.752 414.328 739.112 410.992 744.344 410.992C745.904 410.992 746.864 411.136 747.464 411.4C747.56 411.448 747.608 411.52 747.608 411.664V413.944C747.608 414.136 747.512 414.136 747.416 414.088C746.648 413.728 745.544 413.56 744.296 413.56C740.912 413.56 738.752 415.72 738.752 419.08C738.752 423.232 741.824 424.648 744.344 424.648C745.52 424.648 746.408 424.552 747.296 424.24C747.392 424.192 747.464 424.216 747.464 424.36ZM754.707 414.928C758.403 414.928 760.419 417.736 760.419 421.024C760.419 424.744 758.043 427.24 754.659 427.24C750.651 427.24 748.875 424.144 748.875 421.096C748.875 417.688 751.107 414.928 754.707 414.928ZM754.563 417.352C752.955 417.352 751.803 418.768 751.803 421.048C751.803 423.256 752.883 424.792 754.707 424.792C756.195 424.792 757.467 423.568 757.467 421.096C757.467 419.104 756.603 417.352 754.563 417.352ZM762.673 426.808V417.928C762.673 417.112 762.625 415.816 762.577 415.336C762.577 415.216 762.601 415.168 762.745 415.168H764.929C765.097 415.168 765.169 415.216 765.217 415.336C765.289 415.552 765.337 415.864 765.385 416.248C766.417 415.384 767.569 414.928 768.865 414.928C770.665 414.928 772.873 415.84 772.873 419.68V426.784C772.873 426.952 772.801 427 772.681 427H770.185C770.041 427 769.969 426.928 769.969 426.784V419.944C769.969 418.36 769.297 417.448 767.905 417.448C766.945 417.448 766.153 417.808 765.577 418.432V426.808C765.577 426.928 765.505 427 765.385 427H762.865C762.721 427 762.673 426.928 762.673 426.808ZM782.971 426.784V415.336C782.971 415.216 783.043 415.168 783.163 415.168H785.707C785.851 415.168 785.899 415.192 785.899 415.336V426.808C785.899 426.952 785.851 427 785.683 427H783.211C783.043 427 782.971 426.928 782.971 426.784ZM784.435 413.536C783.475 413.536 782.827 412.888 782.827 411.928C782.827 410.968 783.523 410.296 784.459 410.296C785.443 410.296 786.067 410.992 786.067 411.928C786.067 412.888 785.419 413.536 784.435 413.536ZM776.203 417.592H774.739C774.619 417.592 774.595 417.544 774.595 417.424V415.312C774.595 415.192 774.643 415.168 774.739 415.168H776.203V414.4C776.203 413.368 776.371 412.456 776.731 411.736C777.331 410.44 778.507 409.696 780.259 409.696C780.907 409.696 781.219 409.744 781.459 409.84C781.579 409.888 781.603 409.96 781.603 410.08V412.168C781.603 412.264 781.555 412.36 781.435 412.312C781.147 412.216 780.883 412.192 780.595 412.192C779.683 412.192 779.107 412.696 779.107 414.28V415.168H781.219C781.387 415.168 781.411 415.216 781.411 415.312V417.424C781.411 417.544 781.363 417.568 781.219 417.592H779.107V426.808C779.107 426.928 779.083 427 778.891 427H776.395C776.251 427 776.203 426.928 776.203 426.808V417.592ZM794.067 426.928L791.451 426.808C790.755 427.288 790.299 428.056 790.299 428.416C790.299 429.256 791.451 430.192 793.443 430.192C795.723 430.192 796.731 429.256 796.731 428.344C796.731 427.288 795.531 427 794.067 426.928ZM792.915 417.016C791.715 417.016 790.971 417.76 790.971 418.984C790.971 420.088 791.643 420.904 792.915 420.904C794.115 420.904 794.835 420.208 794.835 419.032C794.835 417.904 794.259 417.016 792.915 417.016ZM792.243 424.384L794.691 424.48C797.979 424.648 799.395 425.944 799.395 427.912C799.395 430.36 796.995 432.328 793.251 432.328C789.387 432.328 787.635 430.384 787.635 428.632C787.635 427.864 788.283 426.88 789.867 425.512C789.507 424.984 789.339 424.36 789.363 423.712C789.363 423.16 789.507 422.632 789.795 422.152C788.811 421.528 788.139 420.496 788.139 419.032C788.139 416.728 789.891 414.928 792.915 414.928C793.755 414.928 794.523 415 795.027 415.096C795.243 415.144 795.435 415.168 795.579 415.168H798.915C799.035 415.168 799.059 415.216 799.059 415.312V417.28C799.059 417.376 799.035 417.424 798.915 417.424C798.459 417.424 797.595 417.376 797.067 417.304C797.331 417.688 797.595 418.264 797.595 419.128C797.595 421.696 795.555 422.992 792.963 422.992C792.651 422.992 792.315 422.968 792.003 422.92C791.931 423.16 791.883 423.4 791.931 423.64C791.955 423.904 792.051 424.144 792.243 424.384ZM810.745 415.336V424.36C810.745 425.608 810.841 426.328 810.889 426.832C810.913 426.952 810.841 427 810.697 427H808.489C808.321 427 808.273 426.952 808.249 426.856C808.177 426.616 808.105 426.256 808.081 426.016C807.049 426.976 805.825 427.24 804.745 427.24C802.465 427.24 800.713 426.016 800.713 422.656V415.336C800.713 415.192 800.761 415.168 800.905 415.168H803.425C803.569 415.168 803.593 415.216 803.593 415.336V422.32C803.593 423.808 804.241 424.72 805.681 424.72C806.593 424.72 807.265 424.408 807.865 423.856V415.336C807.865 415.216 807.913 415.168 808.057 415.168H810.577C810.721 415.168 810.745 415.216 810.745 415.336ZM813.815 415.168H816.071C816.215 415.168 816.287 415.216 816.335 415.36C816.455 415.672 816.551 416.272 816.575 416.8C817.391 415.792 818.759 414.928 820.415 414.928C820.559 414.928 820.607 414.952 820.607 415.096V417.64C820.607 417.76 820.559 417.808 820.391 417.808C818.687 417.76 817.271 418.36 816.719 419.08V426.808C816.719 426.952 816.647 427 816.503 427H814.007C813.839 427 813.791 426.928 813.791 426.808V418.528C813.791 417.496 813.767 416.104 813.671 415.312C813.671 415.192 813.695 415.168 813.815 415.168ZM829.425 421.744H824.553C824.625 423.424 825.729 424.768 828.177 424.768C829.257 424.768 830.241 424.576 831.153 424.192C831.225 424.144 831.297 424.168 831.297 424.288V426.28C831.297 426.424 831.249 426.496 831.153 426.544C830.241 426.976 829.185 427.24 827.553 427.24C823.185 427.24 821.625 424.168 821.625 421.216C821.625 417.88 823.641 414.928 827.265 414.928C830.817 414.928 832.185 417.712 832.185 419.992C832.185 420.664 832.161 421.216 832.089 421.48C832.065 421.576 832.017 421.624 831.897 421.648C831.561 421.72 830.601 421.744 829.425 421.744ZM824.553 419.68H828.129C829.041 419.68 829.353 419.68 829.449 419.656C829.449 419.584 829.449 419.488 829.449 419.464C829.449 418.768 828.969 417.232 827.145 417.232C825.489 417.232 824.745 418.504 824.553 419.68Z" fill="white"/>
<path d="M749.756 441.376C749.78 441.232 749.828 441.232 749.948 441.232H753.788C753.932 441.232 753.98 441.28 754.028 441.4C754.748 443.824 756.836 450.952 757.316 453.184H757.34C757.844 451.144 760.22 443.872 760.964 441.4C761.012 441.304 761.036 441.232 761.18 441.232H764.924C765.044 441.232 765.092 441.256 765.116 441.376L765.764 456.808C765.788 456.952 765.716 457 765.596 457H762.932C762.812 457 762.74 456.976 762.74 456.832C762.62 451.72 762.572 444.808 762.596 443.296H762.572C762.02 445.6 759.548 453.616 758.588 456.808C758.564 456.976 758.468 457 758.372 457H755.972C755.804 457 755.756 456.976 755.732 456.832C754.7 453.184 752.78 446.2 752.108 443.272H752.06C752.036 445.696 751.844 451.792 751.604 456.832C751.604 456.976 751.556 457 751.412 457H749.012C748.868 457 748.82 456.976 748.844 456.808L749.756 441.376ZM773.69 444.928C777.386 444.928 779.402 447.736 779.402 451.024C779.402 454.744 777.026 457.24 773.642 457.24C769.634 457.24 767.858 454.144 767.858 451.096C767.858 447.688 770.09 444.928 773.69 444.928ZM773.546 447.352C771.938 447.352 770.786 448.768 770.786 451.048C770.786 453.256 771.866 454.792 773.69 454.792C775.178 454.792 776.45 453.568 776.45 451.096C776.45 449.104 775.586 447.352 773.546 447.352ZM787.197 457.24C783.717 457.24 781.053 455.224 781.053 451.192C781.053 447.712 783.645 444.928 787.869 444.928C788.205 444.928 788.493 444.952 788.901 445V440.08C788.901 439.96 788.949 439.912 789.045 439.912H791.661C791.781 439.912 791.781 439.96 791.781 440.056V454.552C791.781 455.032 791.829 455.656 791.877 456.088C791.877 456.208 791.853 456.256 791.733 456.304C790.173 456.976 788.637 457.24 787.197 457.24ZM788.901 454.552V447.52C788.589 447.4 788.205 447.352 787.773 447.352C785.637 447.352 784.029 448.72 784.029 451.048C784.029 453.664 785.589 454.744 787.509 454.744C787.989 454.744 788.469 454.696 788.901 454.552ZM801.884 451.744H797.012C797.084 453.424 798.188 454.768 800.636 454.768C801.716 454.768 802.7 454.576 803.612 454.192C803.684 454.144 803.756 454.168 803.756 454.288V456.28C803.756 456.424 803.708 456.496 803.612 456.544C802.7 456.976 801.644 457.24 800.012 457.24C795.644 457.24 794.084 454.168 794.084 451.216C794.084 447.88 796.1 444.928 799.724 444.928C803.276 444.928 804.644 447.712 804.644 449.992C804.644 450.664 804.62 451.216 804.548 451.48C804.524 451.576 804.476 451.624 804.356 451.648C804.02 451.72 803.06 451.744 801.884 451.744ZM797.012 449.68H800.588C801.5 449.68 801.812 449.68 801.908 449.656C801.908 449.584 801.908 449.488 801.908 449.464C801.908 448.768 801.428 447.232 799.604 447.232C797.948 447.232 797.204 448.504 797.012 449.68ZM806.805 454.144V440.104C806.805 439.984 806.877 439.912 807.021 439.912H809.493C809.637 439.912 809.709 439.984 809.709 440.104V453.88C809.709 454.624 809.973 454.864 810.549 454.864C810.741 454.864 810.789 454.864 811.005 454.84C811.077 454.816 811.101 454.864 811.101 454.984V456.784C811.101 456.952 811.077 456.976 810.957 457.048C810.693 457.168 810.261 457.24 809.589 457.24C808.053 457.24 806.805 456.664 806.805 454.144ZM820.014 447.952C819.27 447.544 818.07 447.256 817.014 447.256C815.742 447.256 815.31 447.784 815.31 448.288C815.31 448.816 815.67 449.176 817.206 449.776C819.942 450.784 820.878 451.864 820.878 453.568C820.878 455.824 819.102 457.24 816.15 457.24C814.734 457.24 813.486 456.976 812.766 456.568C812.646 456.496 812.598 456.448 812.598 456.304V454.024C812.598 453.904 812.694 453.856 812.79 453.904C813.822 454.576 815.142 454.864 816.222 454.864C817.47 454.864 818.07 454.432 818.07 453.808C818.07 453.208 817.614 452.824 816.126 452.224C813.51 451.264 812.574 450.184 812.574 448.456C812.574 446.632 814.062 444.928 817.062 444.928C818.454 444.928 819.51 445.12 820.086 445.408C820.206 445.48 820.23 445.576 820.23 445.696V447.808C820.23 447.928 820.158 448 820.014 447.952Z" fill="white"/>
<path d="M287.5 403C289.985 403 292 400.985 292 398.5C292 396.015 289.985 394 287.5 394C285.015 394 283 396.015 283 398.5C283 400.985 285.015 403 287.5 403Z" fill="white"/>
<path d="M287.5 402.5C289.709 402.5 291.5 400.709 291.5 398.5C291.5 396.291 289.709 394.5 287.5 394.5C285.291 394.5 283.5 396.291 283.5 398.5C283.5 400.709 285.291 402.5 287.5 402.5Z" stroke="#707070"/>
<path d="M591.5 403C593.985 403 596 400.985 596 398.5C596 396.015 593.985 394 591.5 394C589.015 394 587 396.015 587 398.5C587 400.985 589.015 403 591.5 403Z" fill="white"/>
<path d="M591.5 402.5C593.709 402.5 595.5 400.709 595.5 398.5C595.5 396.291 593.709 394.5 591.5 394.5C589.291 394.5 587.5 396.291 587.5 398.5C587.5 400.709 589.291 402.5 591.5 402.5Z" stroke="#707070"/>
<path d="M895.5 403C897.985 403 900 400.985 900 398.5C900 396.015 897.985 394 895.5 394C893.015 394 891 396.015 891 398.5C891 400.985 893.015 403 895.5 403Z" fill="white"/>
<path d="M895.5 402.5C897.709 402.5 899.5 400.709 899.5 398.5C899.5 396.291 897.709 394.5 895.5 394.5C893.291 394.5 891.5 396.291 891.5 398.5C891.5 400.709 893.291 402.5 895.5 402.5Z" stroke="#707070"/>
<path d="M1214.5 232C1216.99 232 1219 229.985 1219 227.5C1219 225.015 1216.99 223 1214.5 223C1212.01 223 1210 225.015 1210 227.5C1210 229.985 1212.01 232 1214.5 232Z" fill="white"/>
<path d="M1214.5 231.5C1216.71 231.5 1218.5 229.709 1218.5 227.5C1218.5 225.291 1216.71 223.5 1214.5 223.5C1212.29 223.5 1210.5 225.291 1210.5 227.5C1210.5 229.709 1212.29 231.5 1214.5 231.5Z" stroke="#707070"/>
<path d="M1214.5 577C1216.99 577 1219 574.985 1219 572.5C1219 570.015 1216.99 568 1214.5 568C1212.01 568 1210 570.015 1210 572.5C1210 574.985 1212.01 577 1214.5 577Z" fill="white"/>
<path d="M1214.5 576.5C1216.71 576.5 1218.5 574.709 1218.5 572.5C1218.5 570.291 1216.71 568.5 1214.5 568.5C1212.29 568.5 1210.5 570.291 1210.5 572.5C1210.5 574.709 1212.29 576.5 1214.5 576.5Z" stroke="#707070"/>
<path d="M485.5 315C487.985 315 490 312.985 490 310.5C490 308.015 487.985 306 485.5 306C483.015 306 481 308.015 481 310.5C481 312.985 483.015 315 485.5 315Z" fill="white"/>
<path d="M485.5 314.5C487.709 314.5 489.5 312.709 489.5 310.5C489.5 308.291 487.709 306.5 485.5 306.5C483.291 306.5 481.5 308.291 481.5 310.5C481.5 312.709 483.291 314.5 485.5 314.5Z" stroke="#707070"/>
<path d="M992 573L982 578V568L992 573Z" fill="#FF0000"/>
<mask id="mask6_4_2" style="mask-type:luminance" maskUnits="userSpaceOnUse" x="759" y="329" width="50" height="50">
<path d="M809 329H759V379H809V329Z" fill="white"/>
</mask>
<g mask="url(#mask6_4_2)">
<path d="M807.879 364.814H804.928C804.711 363.734 804.286 362.707 803.678 361.788L805.778 359.688C805.936 359.53 806.025 359.316 806.025 359.092C806.025 358.868 805.936 358.654 805.778 358.496L804.5 357.217C804.342 357.059 804.128 356.97 803.904 356.97C803.68 356.97 803.466 357.059 803.308 357.217L801.208 359.317C800.29 358.709 799.263 358.285 798.183 358.067V355.121C798.183 354.897 798.094 354.683 797.936 354.525C797.778 354.367 797.564 354.278 797.34 354.278H795.657C795.546 354.278 795.437 354.3 795.334 354.342C795.232 354.385 795.139 354.447 795.061 354.525C794.983 354.603 794.921 354.696 794.878 354.798C794.836 354.901 794.814 355.01 794.814 355.121V358.072C793.734 358.29 792.707 358.714 791.789 359.322L789.689 357.222C789.531 357.064 789.317 356.975 789.093 356.975C788.869 356.975 788.655 357.064 788.497 357.222L787.218 358.5C787.06 358.658 786.971 358.872 786.971 359.096C786.971 359.32 787.06 359.534 787.218 359.692L789.318 361.792C788.71 362.711 788.285 363.738 788.068 364.818H785.121C784.897 364.818 784.683 364.907 784.525 365.065C784.367 365.223 784.278 365.437 784.278 365.661V367.347C784.278 367.571 784.367 367.785 784.525 367.943C784.683 368.101 784.897 368.19 785.121 368.19H788.072C788.289 369.27 788.714 370.298 789.322 371.216L787.222 373.316C787.064 373.474 786.975 373.688 786.975 373.912C786.975 374.136 787.064 374.35 787.222 374.508L788.5 375.787C788.658 375.945 788.872 376.034 789.096 376.034C789.32 376.034 789.534 375.945 789.692 375.787L791.792 373.687C792.71 374.295 793.737 374.719 794.817 374.937V377.888C794.817 378.112 794.906 378.326 795.064 378.484C795.222 378.642 795.436 378.731 795.66 378.731H797.346C797.457 378.731 797.566 378.709 797.669 378.667C797.771 378.624 797.864 378.562 797.942 378.484C798.02 378.406 798.082 378.313 798.125 378.211C798.167 378.108 798.189 377.999 798.189 377.888V374.928C799.269 374.71 800.296 374.286 801.214 373.678L803.314 375.778C803.472 375.936 803.686 376.025 803.91 376.025C804.134 376.025 804.348 375.936 804.506 375.778L805.785 374.5C805.943 374.342 806.032 374.128 806.032 373.904C806.032 373.68 805.943 373.466 805.785 373.308L803.685 371.208C804.293 370.29 804.718 369.262 804.935 368.182H807.886C808.11 368.182 808.324 368.093 808.482 367.935C808.64 367.777 808.729 367.563 808.729 367.339V365.657C808.729 365.546 808.707 365.437 808.665 365.334C808.622 365.232 808.56 365.139 808.482 365.061C808.404 364.983 808.311 364.921 808.209 364.878C808.106 364.836 807.997 364.814 807.886 364.814H807.879ZM796.5 371.361C795.539 371.361 794.599 371.076 793.799 370.542C793 370.008 792.377 369.248 792.009 368.36C791.641 367.472 791.545 366.495 791.732 365.552C791.92 364.609 792.383 363.743 793.063 363.063C793.743 362.383 794.609 361.92 795.552 361.732C796.495 361.545 797.472 361.641 798.36 362.009C799.248 362.377 800.008 363 800.542 363.799C801.076 364.599 801.361 365.539 801.361 366.5C801.361 367.789 800.849 369.026 799.937 369.937C799.026 370.849 797.789 371.361 796.5 371.361Z" fill="white"/>
<path d="M781.222 331.778V345.667H767.333L781.222 331.778Z" fill="white"/>
<path d="M781.917 366.5C781.917 362.632 783.453 358.923 786.188 356.188C788.923 353.453 792.632 351.917 796.5 351.917C797.915 351.937 799.319 352.166 800.667 352.595V333.167C800.667 332.799 800.521 332.445 800.26 332.185C800 331.924 799.646 331.778 799.278 331.778H784V347.056C784 347.424 783.854 347.778 783.593 348.038C783.333 348.299 782.979 348.445 782.611 348.445H767.333V374.833C767.333 375.201 767.479 375.555 767.74 375.815C768 376.076 768.354 376.222 768.722 376.222H785.7C783.275 373.564 781.926 370.098 781.917 366.5Z" fill="white"/>
</g>
</g>
</g>
<defs>
<clipPath id="clip0_4_2">
<rect width="1617" height="800" fill="white"/>
</clipPath>
</defs>
</svg>
