<svg xmlns="http://www.w3.org/2000/svg" xmlns:xlink="http://www.w3.org/1999/xlink" width="1617" height="800" viewBox="0 0 1617 800">
  <defs>
    <clipPath id="clip-path">
      <rect id="Rectangle_160983" data-name="Rectangle 160983" width="50" height="50" transform="translate(200 89)" fill="#fff" stroke="#707070" stroke-width="1"/>
    </clipPath>
    <clipPath id="clip-path-2">
      <rect id="Rectangle_160984" data-name="Rectangle 160984" width="50" height="50" transform="translate(351 82)" fill="#fff" stroke="#707070" stroke-width="1"/>
    </clipPath>
    <clipPath id="clip-path-3">
      <rect id="Rectangle_160986" data-name="Rectangle 160986" width="50" height="50" transform="translate(628 89)" fill="#fff" stroke="#707070" stroke-width="1"/>
    </clipPath>
    <clipPath id="clip-path-4">
      <rect id="Rectangle_160987" data-name="Rectangle 160987" width="50" height="50" transform="translate(758 50)" fill="#fff" stroke="#707070" stroke-width="1"/>
    </clipPath>
    <clipPath id="clip-path-5">
      <rect id="Rectangle_160988" data-name="Rectangle 160988" width="50" height="50" transform="translate(729 170)" fill="#fff" stroke="#707070" stroke-width="1"/>
    </clipPath>
    <clipPath id="clip-path-6">
      <rect id="Rectangle_160985" data-name="Rectangle 160985" width="50" height="50" transform="translate(490 50)" fill="#fff" stroke="#707070" stroke-width="1"/>
    </clipPath>
    <clipPath id="clip-ApplicationWorkflow">
      <rect width="1617" height="800"/>
    </clipPath>
  </defs>
  <g id="ApplicationWorkflow" clip-path="url(#clip-ApplicationWorkflow)">
    <rect width="1617" height="800" fill="#fff"/>
    <path id="Arrow_02_a" data-name="Arrow 02 a" d="M173.48,0V42.424H-.026v71.428" transform="translate(984.568 398.975) rotate(90)" fill="none" stroke="#b1b8c9" stroke-width="2"/>
    <g id="Experience_Decisioning" data-name="Experience Decisioning" transform="translate(-910 -229)">
      <g id="Customer_Journey_Analytics" data-name="Customer Journey  Analytics" transform="translate(976 540)">
        <g id="Customer_Journey_Analytics-2" data-name="Customer Journey  Analytics">
          <rect id="BGContainer" width="222" height="178" rx="8" fill="#3b4253"/>
          <rect id="hover" width="222" height="178" rx="8" fill="#0091ff" opacity="0"/>
        </g>
        <text id="Ingest_Data" data-name="Ingest 
Data" transform="translate(111 113)" fill="#fff" font-size="24" font-family="AdobeClean-ExtraBold, Adobe Clean" font-weight="800"><tspan x="-33.96" y="0">Ingest </tspan><tspan x="-24.024" y="30">Data</tspan></text>
      </g>
    </g>
    <g id="Experience_Decisioning-2" data-name="Experience Decisioning" transform="translate(-606 -229)">
      <g id="Customer_Journey_Analytics-3" data-name="Customer Journey  Analytics" transform="translate(976 540)">
        <g id="Customer_Journey_Analytics-4" data-name="Customer Journey  Analytics">
          <rect id="BGContainer-2" data-name="BGContainer" width="222" height="178" rx="8" fill="#3b4253"/>
          <rect id="hover-2" data-name="hover" width="222" height="178" rx="8" fill="#0091ff" opacity="0"/>
        </g>
        <text id="Harmonize_Data" data-name="Harmonize
Data" transform="translate(111 116)" fill="#fff" font-size="24" font-family="AdobeClean-ExtraBold, Adobe Clean" font-weight="800"><tspan x="-56.736" y="0">Harmonize</tspan><tspan x="-24.024" y="30">Data</tspan></text>
      </g>
    </g>
    <g id="Experience_Decisioning-3" data-name="Experience Decisioning" transform="translate(16 -407)">
      <g id="Customer_Journey_Analytics-5" data-name="Customer Journey  Analytics" transform="translate(976 540)">
        <g id="Customer_Journey_Analytics-6" data-name="Customer Journey  Analytics">
          <rect id="BGContainer-3" data-name="BGContainer" width="222" height="178" rx="8" fill="#3b4253"/>
          <rect id="hover-3" data-name="hover" width="222" height="178" rx="8" fill="#0091ff" opacity="0"/>
        </g>
        <g id="Customer_Journey_Analytics-7" data-name="Customer Journey  Analytics">
          <rect id="BGContainer-4" data-name="BGContainer" width="222" height="178" rx="8" fill="#3b4253"/>
          <rect id="hover-4" data-name="hover" width="222" height="178" rx="8" fill="#0091ff" opacity="0"/>
        </g>
        <text id="Train_Score_Models" data-name="Train &amp; Score
Models" transform="translate(112 116)" fill="#fff" font-size="24" font-family="AdobeClean-ExtraBold, Adobe Clean" font-weight="800"><tspan x="-68.556" y="0">Train &amp; Score</tspan><tspan x="-37.668" y="30">Models</tspan></text>
      </g>
    </g>
    <g id="Experience_Decisioning-4" data-name="Experience Decisioning" transform="translate(16 -51)">
      <g id="Customer_Journey_Analytics-8" data-name="Customer Journey  Analytics" transform="translate(976 540)">
        <g id="Customer_Journey_Analytics-9" data-name="Customer Journey  Analytics">
          <rect id="BGContainer-5" data-name="BGContainer" width="222" height="178" rx="8" fill="#3b4253"/>
          <rect id="hover-5" data-name="hover" width="222" height="178" rx="8" fill="#0091ff" opacity="0"/>
        </g>
        <g id="Customer_Journey_Analytics-10" data-name="Customer Journey  Analytics">
          <rect id="BGContainer-6" data-name="BGContainer" width="222" height="178" rx="8" fill="#3b4253"/>
          <rect id="hover-6" data-name="hover" width="222" height="178" rx="8" fill="#0091ff" opacity="0"/>
        </g>
        <text id="Build_Plans" data-name="Build
Plans" transform="translate(111 116)" fill="#fff" font-size="24" font-family="AdobeClean-ExtraBold, Adobe Clean" font-weight="800"><tspan x="-26.736" y="0">Build</tspan><tspan x="-28.104" y="30">Plans</tspan></text>
      </g>
    </g>
    <path id="Arrow_02_a-2" data-name="Arrow 02 a" d="M164.047,78.481V36.056H-9.095V-35.615" transform="translate(906.019 389.542) rotate(-90)" fill="none" stroke="#b1b8c9" stroke-width="2"/>
    <path id="Arrow_02_a-3" data-name="Arrow 02 a" d="M173.436,0V42.036H.294V114.1" transform="translate(1214.5 400) rotate(-90)" fill="none" stroke="#b1b8c9" stroke-linejoin="round" stroke-width="2"/>
    <path id="Arrow_02_a-4" data-name="Arrow 02 a" d="M173.142,114.1V72.06H0V0" transform="translate(1328.596 399.564) rotate(90)" fill="none" stroke="#b1b8c9" stroke-width="2"/>
    <g id="Arrow_02" data-name="Arrow 02" transform="translate(287.789 394)">
      <path id="Arrow_02_a-5" data-name="Arrow 02 a" d="M0,0V74.211" transform="translate(74.211 5) rotate(90)" fill="none" stroke="#b1b8c9" stroke-width="2"/>
      <path id="Arrow_02_b" data-name="Arrow 02 b" d="M5,0l5,10H0Z" transform="translate(82.211) rotate(90)" fill="red"/>
    </g>
    <g id="Experience_Decisioning-5" data-name="Experience Decisioning" transform="translate(-302 -229)">
      <g id="Customer_Journey_Analytics-11" data-name="Customer Journey  Analytics" transform="translate(976 540)">
        <g id="Customer_Journey_Analytics-12" data-name="Customer Journey  Analytics">
          <rect id="BGContainer-7" data-name="BGContainer" width="222" height="178" rx="8" fill="#3b4253"/>
          <rect id="hover-7" data-name="hover" width="222" height="178" rx="8" fill="#0091ff" opacity="0"/>
        </g>
        <text id="Configure_Models" data-name="Configure
Models" transform="translate(111 86)" fill="#fff" font-size="24" font-family="AdobeClean-ExtraBold, Adobe Clean" font-weight="800"><tspan x="-50.112" y="0">Configure</tspan><tspan x="-37.668" y="30">Models</tspan></text>
      </g>
    </g>
    <g id="Experience_Decisioning-6" data-name="Experience Decisioning" transform="translate(340 -229)">
      <g id="Customer_Journey_Analytics-13" data-name="Customer Journey  Analytics" transform="translate(976 540)">
        <g id="Customer_Journey_Analytics-14" data-name="Customer Journey  Analytics">
          <rect id="BGContainer-8" data-name="BGContainer" width="222" height="178" rx="8" fill="#3b4253"/>
          <rect id="hover-8" data-name="hover" width="222" height="178" rx="8" fill="#0091ff" opacity="0"/>
        </g>
        <text id="Overview_Dashboard" data-name="Overview
Dashboard" transform="translate(111 116)" fill="#fff" font-size="24" font-family="AdobeClean-ExtraBold, Adobe Clean" font-weight="800"><tspan x="-49.788" y="0">Overview</tspan><tspan x="-56.232" y="30">Dashboard</tspan></text>
      </g>
    </g>
    <g id="Mask_Group_1" data-name="Mask Group 1" transform="translate(-48 240)" clip-path="url(#clip-path)">
      <g id="Data" transform="translate(200 89)">
        <rect id="Canvas" width="50" height="50" fill="#ff13dc" opacity="0"/>
        <ellipse id="Ellipse_15" data-name="Ellipse 15" cx="22.222" cy="6.944" rx="22.222" ry="6.944" transform="translate(2.778 2.778)" fill="#fff"/>
        <path id="Path_89880" data-name="Path 89880" d="M25,33.715c-6.856,0-19.739-1.624-22.222-5.556V40.278c0,3.835,9.949,6.944,22.222,6.944s22.222-3.11,22.222-6.944V28.153C43.824,32.451,31.856,33.715,25,33.715Z" fill="#fff"/>
        <path id="Path_89881" data-name="Path 89881" d="M25,19.826c-6.856,0-19.739-1.624-22.222-5.563v9.347c0,3.835,9.949,6.944,22.222,6.944s22.222-3.11,22.222-6.944V14.264C43.824,18.562,31.856,19.826,25,19.826Z" fill="#fff"/>
      </g>
    </g>
    <g id="Mask_Group_2" data-name="Mask Group 2" transform="translate(105 247)" clip-path="url(#clip-path-2)">
      <g id="DataCheck" transform="translate(351 82)">
        <rect id="Canvas-2" data-name="Canvas" width="50" height="50" fill="#ff13dc" opacity="0"/>
        <ellipse id="Ellipse_16" data-name="Ellipse 16" cx="22.222" cy="6.944" rx="22.222" ry="6.944" transform="translate(2.778 2.778)" fill="#fff"/>
        <path id="Path_89882" data-name="Path 89882" d="M20.417,37.5a17.084,17.084,0,0,1,.475-3.944c-6.975-.489-16.068-2.16-18.114-5.4V40.278c0,3.671,9.122,6.667,20.665,6.919A16.993,16.993,0,0,1,20.417,37.5Z" fill="#fff"/>
        <path id="Path_89883" data-name="Path 89883" d="M37.5,20.417a16.994,16.994,0,0,1,9.722,3.046v-9.2c-3.4,4.3-15.367,5.556-22.222,5.556S5.261,18.2,2.778,14.264v9.347c0,3.51,8.333,6.4,19.158,6.871A17.074,17.074,0,0,1,37.5,20.417Z" fill="#fff"/>
        <path id="Path_89884" data-name="Path 89884" d="M37.5,25.139A12.361,12.361,0,1,0,49.861,37.5,12.361,12.361,0,0,0,37.5,25.139ZM34.253,45.017l-5.733-5.732a.694.694,0,0,1,0-.982l1.439-1.439a.694.694,0,0,1,.982,0l3.793,3.793,8.481-8.481a.694.694,0,0,1,.982,0l1.449,1.449a.694.694,0,0,1,0,.982L35.228,45.024a.694.694,0,0,1-.975-.007Z" fill="#fff"/>
      </g>
    </g>
    <g id="Mask_Group_4" data-name="Mask Group 4" transform="translate(450 62)" clip-path="url(#clip-path-3)">
      <g id="FileData" transform="translate(628 89)">
        <rect id="Canvas-3" data-name="Canvas" width="50" height="50" fill="#ff13dc" opacity="0"/>
        <path id="Path_89888" data-name="Path 89888" d="M22.222,2.778V16.667H8.333Z" fill="#fff"/>
        <path id="Path_89889" data-name="Path 89889" d="M27.778,47.222V24.807c0-4.583,6.481-6.667,12.5-6.667.461,0,.925.035,1.389.06V4.167a1.389,1.389,0,0,0-1.389-1.389H25V18.056a1.389,1.389,0,0,1-1.389,1.389H8.333V45.833a1.389,1.389,0,0,0,1.389,1.389Z" fill="#fff"/>
        <path id="Path_89890" data-name="Path 89890" d="M40.278,38.889c-5.369,0-9.722-1.74-9.722-3.889V29.444c0,2.147,4.353,4.258,9.722,4.258S50,31.592,50,29.444V35C50,37.149,45.647,38.889,40.278,38.889ZM50,46.082V38.918c0,2.147-4.353,3.889-9.722,3.889s-9.722-1.74-9.722-3.889v7.165c0,2.147,4.353,3.889,9.722,3.889S50,48.231,50,46.082Zm0-20.928c0-2.147-4.437-3.647-9.807-3.647s-9.638,1.5-9.638,3.647,4.353,3.889,9.722,3.889S50,27.3,50,25.154Z" fill="#fff"/>
      </g>
    </g>
    <g id="Mask_Group_5" data-name="Mask Group 5" transform="translate(320 455)" clip-path="url(#clip-path-4)">
      <g id="FileChart" transform="translate(758 50)">
        <rect id="Canvas-4" data-name="Canvas" width="50" height="50" fill="#ff13dc" opacity="0"/>
        <path id="Path_89891" data-name="Path 89891" d="M27.778,2.778V16.667H41.667Z" fill="#fff"/>
        <path id="Path_89892" data-name="Path 89892" d="M26.389,19.444H41.667V45.833a1.389,1.389,0,0,1-1.389,1.389H9.722a1.389,1.389,0,0,1-1.389-1.389V4.167A1.389,1.389,0,0,1,9.722,2.778H25V18.056A1.389,1.389,0,0,0,26.389,19.444Zm.694,13.889H22.917a.694.694,0,0,0-.694.694v6.944a.694.694,0,0,0,.694.694h4.167a.694.694,0,0,0,.694-.694V34.028A.694.694,0,0,0,27.083,33.333ZM18.75,36.111H14.583a.694.694,0,0,0-.694.694v4.167a.694.694,0,0,0,.694.694H18.75a.694.694,0,0,0,.694-.694V36.806A.694.694,0,0,0,18.75,36.111Zm16.667-8.333H31.25a.694.694,0,0,0-.694.694v12.5a.694.694,0,0,0,.694.694h4.167a.694.694,0,0,0,.694-.694v-12.5A.694.694,0,0,0,35.417,27.778Z" fill="#fff"/>
      </g>
    </g>
    <g id="Mask_Group_6" data-name="Mask Group 6" transform="translate(673 159)" clip-path="url(#clip-path-5)">
      <g id="Dashboard" transform="translate(729 170)">
        <rect id="Canvas-5" data-name="Canvas" width="50" height="50" fill="#ff13dc" opacity="0"/>
        <path id="Path_89893" data-name="Path 89893" d="M10.172,38.962A18.431,18.431,0,0,1,6.483,28.138,18.726,18.726,0,0,1,24.461,9.362a18.515,18.515,0,0,1,15.367,29.6,1.007,1.007,0,0,0,.139,1.389l1.293,1.076a1.018,1.018,0,0,0,1.435-.123l.021-.026a22.222,22.222,0,1,0-35.437,0,1.012,1.012,0,0,0,1.421.173l.03-.024,1.294-1.078A1.006,1.006,0,0,0,10.172,38.962Z" fill="#fff"/>
        <path id="Path_89894" data-name="Path 89894" d="M28.943,32.675a4.04,4.04,0,1,1-4.829-3.055h0c1.039-.232,7.686-8.611,8.536-8.118C33.589,22.043,28.689,31.536,28.943,32.675Z" fill="#fff"/>
        <circle id="Ellipse_17" data-name="Ellipse 17" cx="2.222" cy="2.222" r="2.222" transform="translate(8.636 25.651)" fill="#fff"/>
        <circle id="Ellipse_18" data-name="Ellipse 18" cx="2.222" cy="2.222" r="2.222" transform="translate(12.676 15.55)" fill="#fff"/>
        <circle id="Ellipse_19" data-name="Ellipse 19" cx="2.021" cy="2.021" r="2.021" transform="translate(33.081 15.751)" fill="#fff"/>
        <circle id="Ellipse_20" data-name="Ellipse 20" cx="2.021" cy="2.021" r="2.021" transform="translate(22.979 11.711)" fill="#fff"/>
        <circle id="Ellipse_21" data-name="Ellipse 21" cx="2.021" cy="2.021" r="2.021" transform="translate(37.121 25.853)" fill="#fff"/>
      </g>
    </g>
    <g id="Arrow_02-2" data-name="Arrow 02" transform="translate(485.609 61.77)">
      <path id="Arrow_02_a-6" data-name="Arrow 02 a" d="M51.09-759.7H-197.23V181.391H51.09" transform="translate(181.391 197.23) rotate(90)" fill="none" stroke="#b1b8c9" stroke-width="2" stroke-dasharray="2"/>
      <path id="Arrow_02_b-2" data-name="Arrow 02 b" d="M5,0l5,10H0Z" transform="translate(946.391 250.23) rotate(180)" fill="red"/>
    </g>
    <g id="Arrow_02-3" data-name="Arrow 02" transform="translate(592.789 394)">
      <path id="Arrow_02_a-7" data-name="Arrow 02 a" d="M0,0V74.211" transform="translate(74.211 5) rotate(90)" fill="none" stroke="#b1b8c9" stroke-width="2"/>
      <path id="Arrow_02_b-3" data-name="Arrow 02 b" d="M5,0l5,10H0Z" transform="translate(82.211) rotate(90)" fill="red"/>
    </g>
    <path id="Arrow_02_b-4" data-name="Arrow 02 b" d="M5,0l5,10H0Z" transform="translate(992 221) rotate(90)" fill="red"/>
    <path id="Arrow_02_b-5" data-name="Arrow 02 b" d="M5,0l5,10H0Z" transform="translate(1316 395) rotate(90)" fill="red"/>
    <g id="Experience_Decisioning-7" data-name="Experience Decisioning" transform="translate(-302 -229)">
      <g id="Customer_Journey_Analytics-15" data-name="Customer Journey  Analytics" transform="translate(976 540)">
        <g id="Customer_Journey_Analytics-16" data-name="Customer Journey  Analytics">
          <rect id="BGContainer-9" data-name="BGContainer" width="222" height="178" rx="8" fill="#3b4253"/>
          <rect id="hover-9" data-name="hover" width="222" height="178" rx="8" fill="#0091ff" opacity="0"/>
        </g>
        <text id="Build_Models" data-name="Build
Models" transform="translate(111 116)" fill="#fff" font-size="24" font-family="AdobeClean-ExtraBold, Adobe Clean" font-weight="800"><tspan x="-26.736" y="0">Build</tspan><tspan x="-37.668" y="30">Models</tspan></text>
      </g>
    </g>
    <g id="Ellipse_22" data-name="Ellipse 22" transform="translate(283 394)" fill="#fff" stroke="#707070" stroke-width="1">
      <circle cx="4.5" cy="4.5" r="4.5" stroke="none"/>
      <circle cx="4.5" cy="4.5" r="4" fill="none"/>
    </g>
    <g id="Ellipse_23" data-name="Ellipse 23" transform="translate(587 394)" fill="#fff" stroke="#707070" stroke-width="1">
      <circle cx="4.5" cy="4.5" r="4.5" stroke="none"/>
      <circle cx="4.5" cy="4.5" r="4" fill="none"/>
    </g>
    <g id="Ellipse_25" data-name="Ellipse 25" transform="translate(891 394)" fill="#fff" stroke="#707070" stroke-width="1">
      <circle cx="4.5" cy="4.5" r="4.5" stroke="none"/>
      <circle cx="4.5" cy="4.5" r="4" fill="none"/>
    </g>
    <g id="Ellipse_26" data-name="Ellipse 26" transform="translate(1210 223)" fill="#fff" stroke="#707070" stroke-width="1">
      <circle cx="4.5" cy="4.5" r="4.5" stroke="none"/>
      <circle cx="4.5" cy="4.5" r="4" fill="none"/>
    </g>
    <g id="Ellipse_27" data-name="Ellipse 27" transform="translate(1210 568)" fill="#fff" stroke="#707070" stroke-width="1">
      <circle cx="4.5" cy="4.5" r="4.5" stroke="none"/>
      <circle cx="4.5" cy="4.5" r="4" fill="none"/>
    </g>
    <g id="Ellipse_24" data-name="Ellipse 24" transform="translate(481 306)" fill="#fff" stroke="#707070" stroke-width="1">
      <circle cx="4.5" cy="4.5" r="4.5" stroke="none"/>
      <circle cx="4.5" cy="4.5" r="4" fill="none"/>
    </g>
    <path id="Arrow_02_b-6" data-name="Arrow 02 b" d="M5,0l5,10H0Z" transform="translate(992 568) rotate(90)" fill="red"/>
    <g id="Mask_Group_3" data-name="Mask Group 3" transform="translate(269 279)" clip-path="url(#clip-path-6)">
      <g id="FileGear" transform="translate(490 50)">
        <rect id="Canvas-6" data-name="Canvas" width="50" height="50" fill="#ff13dc" opacity="0"/>
        <path id="Path_89885" data-name="Path 89885" d="M48.879,35.814H45.928a8.53,8.53,0,0,0-1.25-3.026l2.1-2.1a.843.843,0,0,0,0-1.192L45.5,28.217a.843.843,0,0,0-1.192,0l-2.1,2.1a8.535,8.535,0,0,0-3.025-1.25V26.121a.843.843,0,0,0-.843-.843H36.657a.843.843,0,0,0-.843.843v2.951a8.535,8.535,0,0,0-3.025,1.25l-2.1-2.1a.843.843,0,0,0-1.192,0L28.218,29.5a.843.843,0,0,0,0,1.192l2.1,2.1a8.53,8.53,0,0,0-1.25,3.026H26.121a.843.843,0,0,0-.843.843v1.686a.843.843,0,0,0,.843.843h2.951a8.53,8.53,0,0,0,1.25,3.026l-2.1,2.1a.843.843,0,0,0,0,1.192L29.5,46.787a.843.843,0,0,0,1.192,0l2.1-2.1a8.535,8.535,0,0,0,3.025,1.25v2.951a.843.843,0,0,0,.843.843h1.686a.843.843,0,0,0,.843-.843v-2.96a8.535,8.535,0,0,0,3.025-1.25l2.1,2.1a.843.843,0,0,0,1.192,0L46.785,45.5a.843.843,0,0,0,0-1.192l-2.1-2.1a8.53,8.53,0,0,0,1.25-3.026h2.951a.843.843,0,0,0,.843-.843V36.657a.843.843,0,0,0-.843-.843ZM37.5,42.361A4.861,4.861,0,1,1,42.361,37.5,4.861,4.861,0,0,1,37.5,42.361Z" fill="#fff"/>
        <path id="Path_89886" data-name="Path 89886" d="M22.222,2.778V16.667H8.333Z" fill="#fff"/>
        <path id="Path_89887" data-name="Path 89887" d="M22.917,37.5A14.583,14.583,0,0,1,37.5,22.917a14.414,14.414,0,0,1,4.167.678V4.167a1.389,1.389,0,0,0-1.389-1.389H25V18.056a1.389,1.389,0,0,1-1.389,1.389H8.333V45.833a1.389,1.389,0,0,0,1.389,1.389H26.7A14.476,14.476,0,0,1,22.917,37.5Z" fill="#fff"/>
      </g>
    </g>
  </g>
</svg>
